<svg width="122" height="90" viewBox="0 0 122 90" fill="none" xmlns="http://www.w3.org/2000/svg">
<path d="M16.4613 67.6049C16.8506 67.6049 17.1651 67.7322 17.4047 67.9867C17.6442 68.2413 17.764 68.5707 17.764 68.975V77.1058C17.764 78.3487 17.502 79.4493 16.9779 80.4076C16.4538 81.3659 15.7201 82.1146 14.7767 82.6537C13.8334 83.1928 12.7552 83.4623 11.5424 83.4623C10.3295 83.4623 9.24385 83.1928 8.28552 82.6537C7.34216 82.1146 6.60844 81.3659 6.08435 80.4076C5.56026 79.4493 5.29822 78.3487 5.29822 77.1058V68.975C5.29822 68.5857 5.43298 68.2637 5.70251 68.0092C5.97205 67.7396 6.31645 67.6049 6.73572 67.6049C7.09509 67.6049 7.40954 67.7396 7.67908 68.0092C7.94861 68.2637 8.08337 68.5857 8.08337 68.975V77.1058C8.08337 77.8246 8.2406 78.4685 8.55505 79.0375C8.8695 79.5915 9.28877 80.0183 9.81286 80.3178C10.3519 80.6172 10.9284 80.767 11.5424 80.767C12.1862 80.767 12.7852 80.6172 13.3392 80.3178C13.9082 80.0183 14.3575 79.5915 14.6869 79.0375C15.0313 78.4685 15.2035 77.8246 15.2035 77.1058V68.975C15.2035 68.5707 15.3158 68.2413 15.5404 67.9867C15.765 67.7322 16.072 67.6049 16.4613 67.6049Z" fill="url(#paint0_linear_4274_12822)"/>
<path d="M27.1544 71.1088C27.6037 71.1088 27.978 71.2361 28.2775 71.4906C28.5919 71.7452 28.7492 72.0446 28.7492 72.389C28.7492 72.8532 28.6294 73.2051 28.3898 73.4447C28.1502 73.6693 27.8657 73.7816 27.5363 73.7816C27.3117 73.7816 27.0571 73.7292 26.7726 73.6244C26.7277 73.6094 26.6229 73.5795 26.4582 73.5346C26.3084 73.4896 26.1437 73.4672 25.964 73.4672C25.5747 73.4672 25.2003 73.587 24.841 73.8265C24.4816 74.0661 24.1821 74.433 23.9425 74.9271C23.7179 75.4063 23.6056 75.9828 23.6056 76.6566V81.9799C23.6056 82.3692 23.4783 82.6986 23.2238 82.9681C22.9692 83.2227 22.6473 83.35 22.258 83.35C21.8686 83.35 21.5467 83.2227 21.2921 82.9681C21.0376 82.6986 20.9103 82.3692 20.9103 81.9799V72.7035C20.9103 72.3142 21.0376 71.9922 21.2921 71.7377C21.5467 71.4682 21.8686 71.3334 22.258 71.3334C22.6473 71.3334 22.9692 71.4682 23.2238 71.7377C23.4783 71.9922 23.6056 72.3142 23.6056 72.7035V72.9955C23.95 72.3816 24.4442 71.9174 25.088 71.6029C25.7319 71.2735 26.4207 71.1088 27.1544 71.1088Z" fill="url(#paint1_linear_4274_12822)"/>
<path d="M36.8709 71.1088C37.9041 71.1088 38.84 71.3783 39.6785 71.9174C40.5171 72.4415 41.1759 73.1752 41.6551 74.1185C42.1492 75.0619 42.3963 76.1325 42.3963 77.3305C42.3963 78.5284 42.1567 79.6065 41.6775 80.5648C41.1984 81.5082 40.5395 82.2494 39.701 82.7885C38.8774 83.3125 37.964 83.5746 36.9607 83.5746C36.242 83.5746 35.5607 83.4323 34.9168 83.1478C34.2879 82.8483 33.7638 82.489 33.3445 82.0697V82.2045C33.3445 82.5938 33.2173 82.9232 32.9627 83.1928C32.7081 83.4473 32.3862 83.5746 31.9969 83.5746C31.6076 83.5746 31.2856 83.4473 31.0311 83.1928C30.7765 82.9382 30.6492 82.6088 30.6492 82.2045V68.099C30.6492 67.7097 30.7765 67.3877 31.0311 67.1332C31.2856 66.8637 31.6076 66.7289 31.9969 66.7289C32.3862 66.7289 32.7081 66.8637 32.9627 67.1332C33.2173 67.3877 33.3445 67.7097 33.3445 68.099V72.7933C33.7039 72.3441 34.2055 71.9548 34.8494 71.6254C35.4933 71.281 36.1671 71.1088 36.8709 71.1088ZM36.534 81.1039C37.4923 81.1039 38.2784 80.7445 38.8924 80.0258C39.5063 79.307 39.8133 78.4086 39.8133 77.3305C39.8133 76.2523 39.5063 75.3614 38.8924 74.6576C38.2934 73.9389 37.5073 73.5795 36.534 73.5795C35.5607 73.5795 34.7671 73.9389 34.1531 74.6576C33.5392 75.3614 33.2322 76.2523 33.2322 77.3305C33.2322 78.4086 33.5392 79.307 34.1531 80.0258C34.7671 80.7445 35.5607 81.1039 36.534 81.1039Z" fill="url(#paint2_linear_4274_12822)"/>
<path d="M54.369 71.1088C54.7583 71.1088 55.0803 71.2361 55.3348 71.4906C55.5894 71.7452 55.7167 72.0746 55.7167 72.4789V81.9799C55.7167 82.3692 55.5894 82.6986 55.3348 82.9681C55.0803 83.2227 54.7583 83.35 54.369 83.35C53.9797 83.35 53.6577 83.2227 53.4032 82.9681C53.1636 82.7136 53.0363 82.3916 53.0214 82.0023C52.647 82.4366 52.1379 82.8109 51.494 83.1254C50.8651 83.4248 50.1988 83.5746 49.495 83.5746C48.4618 83.5746 47.5259 83.3125 46.6874 82.7885C45.8488 82.2494 45.1825 81.5082 44.6883 80.5648C44.2092 79.6215 43.9696 78.5508 43.9696 77.3529C43.9696 76.155 44.2092 75.0844 44.6883 74.141C45.1675 73.1827 45.8189 72.4415 46.6424 71.9174C47.481 71.3783 48.4019 71.1088 49.4051 71.1088C50.1239 71.1088 50.7977 71.2435 51.4266 71.5131C52.0555 71.7676 52.5871 72.0971 53.0214 72.5014V72.4789C53.0214 72.0896 53.1486 71.7676 53.4032 71.5131C53.6577 71.2435 53.9797 71.1088 54.369 71.1088ZM49.8319 81.1039C50.8052 81.1039 51.5988 80.752 52.2128 80.0482C52.8267 79.3295 53.1337 78.431 53.1337 77.3529C53.1337 76.2748 52.8267 75.3764 52.2128 74.6576C51.5988 73.9389 50.8052 73.5795 49.8319 73.5795C48.8736 73.5795 48.0874 73.9389 47.4735 74.6576C46.8596 75.3764 46.5526 76.2748 46.5526 77.3529C46.5526 78.431 46.8521 79.3295 47.451 80.0482C48.065 80.752 48.8586 81.1039 49.8319 81.1039Z" fill="url(#paint3_linear_4274_12822)"/>
<path d="M65.0615 71.1088C66.5888 71.1088 67.6445 71.5655 68.2284 72.4789C68.8124 73.3773 69.1044 74.6277 69.1044 76.2299V81.9799C69.1044 82.3692 68.9771 82.6986 68.7226 82.9681C68.468 83.2227 68.1461 83.35 67.7568 83.35C67.3674 83.35 67.0455 83.2227 66.7909 82.9681C66.5364 82.6986 66.4091 82.3692 66.4091 81.9799V76.2299C66.4091 75.4063 66.2369 74.7624 65.8925 74.2982C65.5481 73.8191 64.9566 73.5795 64.1181 73.5795C63.2496 73.5795 62.5683 73.834 62.0742 74.3431C61.58 74.8373 61.3329 75.4662 61.3329 76.2299V81.9799C61.3329 82.3692 61.2057 82.6986 60.9511 82.9681C60.6966 83.2227 60.3746 83.35 59.9853 83.35C59.596 83.35 59.274 83.2227 59.0195 82.9681C58.7649 82.6986 58.6376 82.3692 58.6376 81.9799V72.7035C58.6376 72.3142 58.7649 71.9922 59.0195 71.7377C59.274 71.4682 59.596 71.3334 59.9853 71.3334C60.3746 71.3334 60.6966 71.4682 60.9511 71.7377C61.2057 71.9922 61.3329 72.3142 61.3329 72.7035V73.0853C61.7372 72.5463 62.2613 72.0821 62.9052 71.6928C63.5641 71.3034 64.2828 71.1088 65.0615 71.1088Z" fill="url(#paint4_linear_4274_12822)"/>
<path d="M86.3063 67.6049C86.6806 67.6049 87.0026 67.7396 87.2721 68.0092C87.5566 68.2637 87.6989 68.5857 87.6989 68.975V81.9799C87.6989 82.3692 87.5716 82.6986 87.317 82.9681C87.0625 83.2227 86.7256 83.35 86.3063 83.35C85.887 83.35 85.5426 83.2227 85.2731 82.9681C85.0185 82.7136 84.8913 82.3842 84.8913 81.9799V72.9281L81.1852 78.5883C81.0355 78.7679 80.8633 78.9177 80.6686 79.0375C80.4739 79.1423 80.2718 79.1872 80.0622 79.1722C79.8675 79.1872 79.6728 79.1423 79.4782 79.0375C79.2835 78.9177 79.1113 78.7679 78.9616 78.5883L75.2555 72.726V81.9799C75.2555 82.3842 75.1357 82.7136 74.8961 82.9681C74.6566 83.2227 74.3421 83.35 73.9528 83.35C73.5784 83.35 73.2715 83.2227 73.0319 82.9681C72.7923 82.6986 72.6725 82.3692 72.6725 81.9799V68.975C72.6725 68.6006 72.8073 68.2787 73.0768 68.0092C73.3613 67.7396 73.6982 67.6049 74.0876 67.6049C74.3122 67.6049 74.5368 67.6648 74.7614 67.7846C74.986 67.8894 75.1582 68.0316 75.278 68.2113L80.1745 75.7357L85.2057 68.2113C85.3255 68.0316 85.4827 67.8894 85.6774 67.7846C85.887 67.6648 86.0967 67.6049 86.3063 67.6049Z" fill="#1B1B1B"/>
<path d="M102.396 77.3529C102.396 78.5508 102.126 79.629 101.587 80.5873C101.048 81.5306 100.307 82.2644 99.3636 82.7885C98.4352 83.3125 97.4095 83.5746 96.2865 83.5746C95.1485 83.5746 94.1153 83.3125 93.1869 82.7885C92.2585 82.2644 91.5248 81.5306 90.9857 80.5873C90.4466 79.629 90.1771 78.5508 90.1771 77.3529C90.1771 76.155 90.4466 75.0844 90.9857 74.141C91.5248 73.1827 92.2585 72.4415 93.1869 71.9174C94.1153 71.3783 95.1485 71.1088 96.2865 71.1088C97.4095 71.1088 98.4352 71.3783 99.3636 71.9174C100.307 72.4415 101.048 73.1827 101.587 74.141C102.126 75.0844 102.396 76.155 102.396 77.3529ZM99.7005 77.3529C99.7005 76.6192 99.5433 75.9678 99.2289 75.3988C98.9294 74.8148 98.5176 74.3656 97.9935 74.0512C97.4844 73.7367 96.9154 73.5795 96.2865 73.5795C95.6576 73.5795 95.0811 73.7367 94.557 74.0512C94.0479 74.3656 93.6361 74.8148 93.3216 75.3988C93.0222 75.9678 92.8724 76.6192 92.8724 77.3529C92.8724 78.0866 93.0222 78.738 93.3216 79.307C93.6361 79.876 94.0479 80.3178 94.557 80.6322C95.0811 80.9467 95.6576 81.1039 96.2865 81.1039C96.9154 81.1039 97.4844 80.9467 97.9935 80.6322C98.5176 80.3178 98.9294 79.876 99.2289 79.307C99.5433 78.738 99.7005 78.0866 99.7005 77.3529Z" fill="#1B1B1B"/>
<path d="M110.869 71.1088C111.903 71.1088 112.838 71.3783 113.677 71.9174C114.516 72.4415 115.174 73.1752 115.654 74.1185C116.148 75.0619 116.395 76.1325 116.395 77.3305C116.395 78.5284 116.155 79.6065 115.676 80.5648C115.197 81.5082 114.538 82.2494 113.699 82.7885C112.876 83.3125 111.963 83.5746 110.959 83.5746C110.24 83.5746 109.559 83.4323 108.915 83.1478C108.286 82.8483 107.762 82.489 107.343 82.0697V86.472C107.343 86.8614 107.216 87.1833 106.961 87.4379C106.707 87.7074 106.385 87.8422 105.995 87.8422C105.606 87.8422 105.284 87.7149 105.03 87.4603C104.775 87.2058 104.648 86.8763 104.648 86.472V72.7035C104.648 72.3142 104.775 71.9922 105.03 71.7377C105.284 71.4682 105.606 71.3334 105.995 71.3334C106.385 71.3334 106.707 71.4682 106.961 71.7377C107.216 71.9922 107.343 72.3142 107.343 72.7035V72.7933C107.702 72.3441 108.204 71.9548 108.848 71.6254C109.492 71.281 110.166 71.1088 110.869 71.1088ZM110.532 81.1039C111.491 81.1039 112.277 80.7445 112.891 80.0258C113.505 79.307 113.812 78.4086 113.812 77.3305C113.812 76.2523 113.505 75.3614 112.891 74.6576C112.292 73.9389 111.506 73.5795 110.532 73.5795C109.559 73.5795 108.766 73.9389 108.152 74.6576C107.538 75.3614 107.231 76.2523 107.231 77.3305C107.231 78.4086 107.538 79.307 108.152 80.0258C108.766 80.7445 109.559 81.1039 110.532 81.1039Z" fill="#1B1B1B"/>
<path d="M60.1806 63.4056C77.1372 63.4056 90.8834 49.6595 90.8834 32.7028C90.8834 15.7461 77.1372 2 60.1806 2C43.2239 2 29.4778 15.7461 29.4778 32.7028C29.4778 49.6595 43.2239 63.4056 60.1806 63.4056Z" fill="url(#paint5_linear_4274_12822)"/>
<path d="M58.5528 12.4001C59.231 11.9931 60.045 11.9931 60.7232 12.4001L63.165 13.8922C63.3911 14.0279 63.5267 14.254 63.5267 14.5253C63.5267 14.7966 63.3911 15.0227 63.165 15.1583L47.1579 24.3375C46.5249 24.6993 46.1631 25.3775 46.1631 26.0558V39.2141C46.1631 39.9376 46.5701 40.6159 47.2031 40.9776L53.9406 44.5046C54.2571 44.6855 54.6641 44.6855 54.9806 44.4594C55.2971 44.2785 55.5232 43.9168 55.5232 43.555V31.3462C55.5232 30.6228 55.8849 29.9897 56.518 29.628L71.9372 20.5392C72.7963 20.0418 73.8363 20.0418 74.6955 20.5392L76.5042 21.6245C76.7755 21.8053 76.9111 22.0766 76.9111 22.3931C76.9111 22.7097 76.7303 22.981 76.5042 23.1166L59.9093 32.7932V50.1568C59.9093 50.8803 59.5476 51.5133 58.9145 51.8751C58.2815 52.2368 57.558 52.2368 56.9249 51.8751L42.7266 43.7359C42.0935 43.3741 41.7318 42.7411 41.7318 42.0176V23.614C41.7318 22.9358 42.0936 22.3479 42.6362 21.9862L58.5528 12.4001Z" fill="white"/>
<path d="M61.5824 50.3377C61.5824 51.0159 61.9441 51.6942 62.532 52.0559C63.1198 52.4177 63.8885 52.4177 64.4763 52.1011L65.245 51.6942C65.7876 51.3777 66.1494 50.7898 66.1494 50.1568V36.2298L68.0937 34.7828V43.8715C68.0937 44.5046 68.4555 45.0924 68.9981 45.4089L69.3146 45.5898C69.9477 45.9063 70.6711 45.9063 71.259 45.5446C71.8468 45.1828 72.2538 44.5498 72.2538 43.8263V32.0697L74.2886 31.0749V42.5602C74.2886 43.2837 74.6955 43.962 75.3286 44.3237C75.9616 44.6854 76.7303 44.6402 77.3634 44.2333L77.906 43.8715C78.4034 43.555 78.7199 43.0124 78.7199 42.4246V27.3219C78.7199 26.5984 78.3581 25.9653 77.7251 25.6036C77.092 25.2419 76.3686 25.2419 75.7355 25.6036L62.5772 33.2002C61.9441 33.5619 61.5824 34.195 61.5824 34.9184V50.3377V50.3377Z" fill="white"/>
<defs>
<linearGradient id="paint0_linear_4274_12822" x1="60.8465" y1="85.4529" x2="60.8465" y2="67.8399" gradientUnits="userSpaceOnUse">
<stop stop-color="#FF8A00"/>
<stop offset="1" stop-color="#FFBC00"/>
</linearGradient>
<linearGradient id="paint1_linear_4274_12822" x1="60.8465" y1="85.4529" x2="60.8465" y2="67.8399" gradientUnits="userSpaceOnUse">
<stop stop-color="#FF8A00"/>
<stop offset="1" stop-color="#FFBC00"/>
</linearGradient>
<linearGradient id="paint2_linear_4274_12822" x1="60.8465" y1="85.4529" x2="60.8465" y2="67.8399" gradientUnits="userSpaceOnUse">
<stop stop-color="#FF8A00"/>
<stop offset="1" stop-color="#FFBC00"/>
</linearGradient>
<linearGradient id="paint3_linear_4274_12822" x1="60.8465" y1="85.4529" x2="60.8465" y2="67.8399" gradientUnits="userSpaceOnUse">
<stop stop-color="#FF8A00"/>
<stop offset="1" stop-color="#FFBC00"/>
</linearGradient>
<linearGradient id="paint4_linear_4274_12822" x1="60.8465" y1="85.4529" x2="60.8465" y2="67.8399" gradientUnits="userSpaceOnUse">
<stop stop-color="#FF8A00"/>
<stop offset="1" stop-color="#FFBC00"/>
</linearGradient>
<linearGradient id="paint5_linear_4274_12822" x1="60.1806" y1="56.4566" x2="60.1806" y2="5.23126" gradientUnits="userSpaceOnUse">
<stop stop-color="#FF8A00"/>
<stop offset="1" stop-color="#FFBC00"/>
</linearGradient>
</defs>
</svg>
