<svg width="122" height="90" viewBox="0 0 122 90" fill="none" xmlns="http://www.w3.org/2000/svg">
<path d="M13.728 67.176C14.144 67.176 14.48 67.32 14.736 67.608C14.992 67.88 15.12 68.224 15.12 68.64V77.328C15.12 78.656 14.832 79.832 14.256 80.856C13.696 81.88 12.92 82.68 11.928 83.256C10.936 83.832 9.784 84.12 8.472 84.12C7.16 84.12 6 83.832 4.992 83.256C4 82.68 3.216 81.88 2.64 80.856C2.08 79.832 1.8 78.656 1.8 77.328V68.64C1.8 68.224 1.944 67.88 2.232 67.608C2.52 67.32 2.888 67.176 3.336 67.176C3.704 67.176 4.032 67.32 4.32 67.608C4.624 67.88 4.776 68.224 4.776 68.64V77.328C4.776 78.128 4.944 78.824 5.28 79.416C5.632 79.992 6.088 80.44 6.648 80.76C7.224 81.08 7.832 81.24 8.472 81.24C9.16 81.24 9.8 81.08 10.392 80.76C10.984 80.44 11.464 79.992 11.832 79.416C12.2 78.824 12.384 78.128 12.384 77.328V68.64C12.384 68.224 12.504 67.88 12.744 67.608C12.984 67.32 13.312 67.176 13.728 67.176ZM19.9219 84C19.5059 84 19.1619 83.864 18.8899 83.592C18.6179 83.304 18.4819 82.952 18.4819 82.536V72.624C18.4819 72.208 18.6179 71.864 18.8899 71.592C19.1619 71.304 19.5059 71.16 19.9219 71.16C20.3379 71.16 20.6819 71.304 20.9539 71.592C21.2259 71.864 21.3619 72.208 21.3619 72.624V74.88L21.1939 73.272C21.3699 72.888 21.5939 72.552 21.8659 72.264C22.1539 71.96 22.4739 71.712 22.8259 71.52C23.1779 71.312 23.5539 71.16 23.9539 71.064C24.3539 70.968 24.7539 70.92 25.1539 70.92C25.6339 70.92 26.0339 71.056 26.3539 71.328C26.6899 71.6 26.8579 71.92 26.8579 72.288C26.8579 72.816 26.7219 73.2 26.4499 73.44C26.1779 73.664 25.8819 73.776 25.5619 73.776C25.2579 73.776 24.9779 73.72 24.7219 73.608C24.4819 73.496 24.2019 73.44 23.8819 73.44C23.5939 73.44 23.2979 73.512 22.9939 73.656C22.7059 73.784 22.4339 73.992 22.1779 74.28C21.9379 74.568 21.7379 74.928 21.5779 75.36C21.4339 75.776 21.3619 76.272 21.3619 76.848V82.536C21.3619 82.952 21.2259 83.304 20.9539 83.592C20.6819 83.864 20.3379 84 19.9219 84ZM35.5361 70.92C36.6561 70.92 37.6561 71.208 38.5361 71.784C39.4321 72.344 40.1361 73.12 40.6481 74.112C41.1761 75.104 41.4401 76.256 41.4401 77.568C41.4401 78.88 41.1761 80.04 40.6481 81.048C40.1361 82.04 39.4401 82.824 38.5601 83.4C37.6961 83.96 36.7201 84.24 35.6321 84.24C34.9921 84.24 34.3921 84.136 33.8321 83.928C33.2721 83.72 32.7761 83.456 32.3441 83.136C31.9281 82.816 31.6001 82.496 31.3601 82.176C31.1361 81.84 31.0241 81.56 31.0241 81.336L31.7681 81.024V82.776C31.7681 83.192 31.6321 83.544 31.3601 83.832C31.0881 84.104 30.7441 84.24 30.3281 84.24C29.9121 84.24 29.5681 84.104 29.2961 83.832C29.0241 83.56 28.8881 83.208 28.8881 82.776V67.704C28.8881 67.288 29.0241 66.944 29.2961 66.672C29.5681 66.384 29.9121 66.24 30.3281 66.24C30.7441 66.24 31.0881 66.384 31.3601 66.672C31.6321 66.944 31.7681 67.288 31.7681 67.704V73.8L31.3601 73.584C31.3601 73.376 31.4721 73.128 31.6961 72.84C31.9201 72.536 32.2241 72.24 32.6081 71.952C32.9921 71.648 33.4321 71.4 33.9281 71.208C34.4401 71.016 34.9761 70.92 35.5361 70.92ZM35.1761 73.56C34.4721 73.56 33.8561 73.736 33.3281 74.088C32.8001 74.44 32.3841 74.92 32.0801 75.528C31.7921 76.12 31.6481 76.8 31.6481 77.568C31.6481 78.32 31.7921 79.008 32.0801 79.632C32.3841 80.24 32.8001 80.72 33.3281 81.072C33.8561 81.424 34.4721 81.6 35.1761 81.6C35.8801 81.6 36.4881 81.424 37.0001 81.072C37.5281 80.72 37.9361 80.24 38.2241 79.632C38.5281 79.008 38.6801 78.32 38.6801 77.568C38.6801 76.8 38.5281 76.12 38.2241 75.528C37.9361 74.92 37.5281 74.44 37.0001 74.088C36.4881 73.736 35.8801 73.56 35.1761 73.56ZM54.4704 70.92C54.8864 70.92 55.2304 71.056 55.5024 71.328C55.7744 71.6 55.9104 71.952 55.9104 72.384V82.536C55.9104 82.952 55.7744 83.304 55.5024 83.592C55.2304 83.864 54.8864 84 54.4704 84C54.0544 84 53.7104 83.864 53.4384 83.592C53.1664 83.304 53.0304 82.952 53.0304 82.536V81.36L53.5584 81.576C53.5584 81.784 53.4464 82.04 53.2224 82.344C52.9984 82.632 52.6944 82.92 52.3104 83.208C51.9264 83.496 51.4704 83.744 50.9424 83.952C50.4304 84.144 49.8704 84.24 49.2624 84.24C48.1584 84.24 47.1584 83.96 46.2624 83.4C45.3664 82.824 44.6544 82.04 44.1264 81.048C43.6144 80.04 43.3584 78.888 43.3584 77.592C43.3584 76.28 43.6144 75.128 44.1264 74.136C44.6544 73.128 45.3584 72.344 46.2384 71.784C47.1184 71.208 48.0944 70.92 49.1664 70.92C49.8544 70.92 50.4864 71.024 51.0624 71.232C51.6384 71.44 52.1344 71.704 52.5504 72.024C52.9824 72.344 53.3104 72.672 53.5344 73.008C53.7744 73.328 53.8944 73.6 53.8944 73.824L53.0304 74.136V72.384C53.0304 71.968 53.1664 71.624 53.4384 71.352C53.7104 71.064 54.0544 70.92 54.4704 70.92ZM49.6224 81.6C50.3264 81.6 50.9424 81.424 51.4704 81.072C51.9984 80.72 52.4064 80.24 52.6944 79.632C52.9984 79.024 53.1504 78.344 53.1504 77.592C53.1504 76.824 52.9984 76.136 52.6944 75.528C52.4064 74.92 51.9984 74.44 51.4704 74.088C50.9424 73.736 50.3264 73.56 49.6224 73.56C48.9344 73.56 48.3264 73.736 47.7984 74.088C47.2704 74.44 46.8544 74.92 46.5504 75.528C46.2624 76.136 46.1184 76.824 46.1184 77.592C46.1184 78.344 46.2624 79.024 46.5504 79.632C46.8544 80.24 47.2704 80.72 47.7984 81.072C48.3264 81.424 48.9344 81.6 49.6224 81.6ZM65.8928 70.92C67.0768 70.92 67.9728 71.168 68.5808 71.664C69.2048 72.16 69.6288 72.824 69.8528 73.656C70.0928 74.472 70.2128 75.384 70.2128 76.392V82.536C70.2128 82.952 70.0768 83.304 69.8047 83.592C69.5328 83.864 69.1888 84 68.7728 84C68.3568 84 68.0128 83.864 67.7408 83.592C67.4688 83.304 67.3328 82.952 67.3328 82.536V76.392C67.3328 75.864 67.2608 75.392 67.1168 74.976C66.9888 74.544 66.7488 74.2 66.3968 73.944C66.0448 73.688 65.5408 73.56 64.8848 73.56C64.2448 73.56 63.7008 73.688 63.2528 73.944C62.8208 74.2 62.4848 74.544 62.2448 74.976C62.0208 75.392 61.9088 75.864 61.9088 76.392V82.536C61.9088 82.952 61.7728 83.304 61.5008 83.592C61.2288 83.864 60.8848 84 60.4688 84C60.0528 84 59.7088 83.864 59.4368 83.592C59.1648 83.304 59.0288 82.952 59.0288 82.536V72.624C59.0288 72.208 59.1648 71.864 59.4368 71.592C59.7088 71.304 60.0528 71.16 60.4688 71.16C60.8848 71.16 61.2288 71.304 61.5008 71.592C61.7728 71.864 61.9088 72.208 61.9088 72.624V73.656L61.5488 73.584C61.6928 73.312 61.9008 73.024 62.1728 72.72C62.4448 72.4 62.7648 72.104 63.1328 71.832C63.5008 71.56 63.9168 71.344 64.3808 71.184C64.8448 71.008 65.3488 70.92 65.8928 70.92Z" fill="url(#paint0_linear_149_3828)"/>
<path d="M75.0776 67.176C75.3016 67.176 75.5336 67.24 75.7736 67.368C76.0296 67.48 76.2216 67.632 76.3496 67.824L82.1816 76.8L80.9816 76.752L86.9576 67.824C87.2616 67.392 87.6536 67.176 88.1336 67.176C88.5176 67.176 88.8616 67.312 89.1656 67.584C89.4696 67.856 89.6216 68.208 89.6216 68.64V82.536C89.6216 82.952 89.4856 83.304 89.2136 83.592C88.9416 83.864 88.5816 84 88.1336 84C87.6856 84 87.3176 83.864 87.0296 83.592C86.7576 83.304 86.6216 82.952 86.6216 82.536V71.232L87.5576 71.448L82.6616 78.912C82.5176 79.088 82.3336 79.24 82.1096 79.368C81.9016 79.496 81.6856 79.552 81.4616 79.536C81.2536 79.552 81.0376 79.496 80.8136 79.368C80.6056 79.24 80.4296 79.088 80.2856 78.912L75.7016 71.664L76.3256 70.392V82.536C76.3256 82.952 76.1976 83.304 75.9416 83.592C75.6856 83.864 75.3496 84 74.9336 84C74.5336 84 74.2056 83.864 73.9496 83.592C73.6936 83.304 73.5656 82.952 73.5656 82.536V68.64C73.5656 68.24 73.7096 67.896 73.9976 67.608C74.3016 67.32 74.6616 67.176 75.0776 67.176ZM105.446 77.592C105.446 78.904 105.15 80.064 104.558 81.072C103.982 82.064 103.198 82.84 102.206 83.4C101.23 83.96 100.134 84.24 98.9177 84.24C97.7017 84.24 96.5977 83.96 95.6057 83.4C94.6297 82.84 93.8457 82.064 93.2537 81.072C92.6777 80.064 92.3897 78.904 92.3897 77.592C92.3897 76.28 92.6777 75.128 93.2537 74.136C93.8457 73.128 94.6297 72.344 95.6057 71.784C96.5977 71.208 97.7017 70.92 98.9177 70.92C100.134 70.92 101.23 71.208 102.206 71.784C103.198 72.344 103.982 73.128 104.558 74.136C105.15 75.128 105.446 76.28 105.446 77.592ZM102.566 77.592C102.566 76.776 102.398 76.072 102.062 75.48C101.742 74.872 101.302 74.4 100.742 74.064C100.198 73.728 99.5897 73.56 98.9177 73.56C98.2457 73.56 97.6297 73.728 97.0697 74.064C96.5257 74.4 96.0857 74.872 95.7497 75.48C95.4297 76.072 95.2697 76.776 95.2697 77.592C95.2697 78.392 95.4297 79.096 95.7497 79.704C96.0857 80.296 96.5257 80.76 97.0697 81.096C97.6297 81.432 98.2457 81.6 98.9177 81.6C99.5897 81.6 100.198 81.432 100.742 81.096C101.302 80.76 101.742 80.296 102.062 79.704C102.398 79.096 102.566 78.392 102.566 77.592ZM114.614 70.92C115.734 70.92 116.734 71.208 117.614 71.784C118.51 72.344 119.214 73.12 119.726 74.112C120.254 75.104 120.518 76.256 120.518 77.568C120.518 78.88 120.254 80.04 119.726 81.048C119.214 82.04 118.518 82.824 117.638 83.4C116.774 83.96 115.798 84.24 114.71 84.24C114.07 84.24 113.47 84.136 112.91 83.928C112.35 83.72 111.854 83.456 111.422 83.136C111.006 82.816 110.678 82.496 110.438 82.176C110.214 81.84 110.102 81.56 110.102 81.336L110.846 81.024V87.336C110.846 87.752 110.71 88.096 110.438 88.368C110.166 88.656 109.822 88.8 109.406 88.8C108.99 88.8 108.646 88.664 108.374 88.392C108.102 88.12 107.966 87.768 107.966 87.336V72.624C107.966 72.208 108.102 71.864 108.374 71.592C108.646 71.304 108.99 71.16 109.406 71.16C109.822 71.16 110.166 71.304 110.438 71.592C110.71 71.864 110.846 72.208 110.846 72.624V73.8L110.438 73.584C110.438 73.376 110.55 73.128 110.774 72.84C110.998 72.536 111.302 72.24 111.686 71.952C112.07 71.648 112.51 71.4 113.006 71.208C113.518 71.016 114.054 70.92 114.614 70.92ZM114.254 73.56C113.55 73.56 112.934 73.736 112.406 74.088C111.878 74.44 111.462 74.92 111.158 75.528C110.87 76.12 110.726 76.8 110.726 77.568C110.726 78.32 110.87 79.008 111.158 79.632C111.462 80.24 111.878 80.72 112.406 81.072C112.934 81.424 113.55 81.6 114.254 81.6C114.958 81.6 115.566 81.424 116.078 81.072C116.606 80.72 117.014 80.24 117.302 79.632C117.606 79.008 117.758 78.32 117.758 77.568C117.758 76.8 117.606 76.12 117.302 75.528C117.014 74.92 116.606 74.44 116.078 74.088C115.566 73.736 114.958 73.56 114.254 73.56Z" fill="#1B1B1B"/>
<path d="M14.736 67.608L13.9886 68.2724L13.998 68.283L14.0078 68.2934L14.736 67.608ZM14.256 80.856L13.3844 80.3657L13.3786 80.3762L14.256 80.856ZM11.928 83.256L11.4259 82.3912H11.4259L11.928 83.256ZM4.992 83.256L4.48985 84.1208L4.49586 84.1242L4.992 83.256ZM2.64 80.856L1.76257 81.3358L1.76842 81.3463L2.64 80.856ZM2.232 67.608L2.91862 68.335L2.92901 68.3252L2.93911 68.3151L2.232 67.608ZM4.32 67.608L3.61289 68.3151L3.63252 68.3347L3.65321 68.3532L4.32 67.608ZM5.28 79.416L4.41031 79.9096L4.41829 79.9237L4.42672 79.9375L5.28 79.416ZM6.648 80.76L6.15183 81.6283L6.16236 81.6342L6.648 80.76ZM10.392 80.76L9.91648 79.8803L10.392 80.76ZM11.832 79.416L12.6748 79.9544L12.6813 79.9439L11.832 79.416ZM12.744 67.608L13.4938 68.2696L13.5032 68.259L13.5122 68.2482L12.744 67.608ZM13.728 68.176C13.884 68.176 13.9387 68.2163 13.9886 68.2724L15.4834 66.9436C15.0213 66.4237 14.404 66.176 13.728 66.176V68.176ZM14.0078 68.2934C14.0688 68.3582 14.12 68.4473 14.12 68.64H16.12C16.12 68.0007 15.9152 67.4018 15.4642 66.9226L14.0078 68.2934ZM14.12 68.64V77.328H16.12V68.64H14.12ZM14.12 77.328C14.12 78.507 13.8657 79.5101 13.3844 80.3657L15.1276 81.3463C15.7983 80.1539 16.12 78.805 16.12 77.328H14.12ZM13.3786 80.3762C12.9046 81.243 12.2571 81.9086 11.4259 82.3912L12.4301 84.1208C13.5829 83.4514 14.4874 82.517 15.1334 81.3358L13.3786 80.3762ZM11.4259 82.3912C10.6072 82.8666 9.63339 83.12 8.472 83.12V85.12C9.93461 85.12 11.2648 84.7975 12.4301 84.1208L11.4259 82.3912ZM8.472 83.12C7.31097 83.12 6.32621 82.8667 5.48814 82.3878L4.49586 84.1242C5.67379 84.7973 7.00903 85.12 8.472 85.12V83.12ZM5.49414 82.3912C4.66038 81.9071 4.00229 81.2381 3.51158 80.3657L1.76842 81.3463C2.42971 82.5219 3.33962 83.4529 4.48986 84.1208L5.49414 82.3912ZM3.51737 80.3762C3.04836 79.5186 2.8 78.5117 2.8 77.328H0.8C0.8 78.8003 1.11164 80.1454 1.76263 81.3358L3.51737 80.3762ZM2.8 77.328V68.64H0.8V77.328H2.8ZM2.8 68.64C2.8 68.4836 2.84163 68.4077 2.91862 68.335L1.54538 66.881C1.04637 67.3523 0.8 67.9644 0.8 68.64H2.8ZM2.93911 68.3151C3.01994 68.2343 3.12409 68.176 3.336 68.176V66.176C2.65191 66.176 2.02007 66.4057 1.52489 66.9009L2.93911 68.3151ZM3.336 68.176C3.40926 68.176 3.49047 68.1927 3.61289 68.3151L5.02711 66.9009C4.57353 66.4473 3.99874 66.176 3.336 66.176V68.176ZM3.65321 68.3532C3.74043 68.4313 3.776 68.5021 3.776 68.64H5.776C5.776 67.9459 5.50757 67.3287 4.9868 66.8628L3.65321 68.3532ZM3.776 68.64V77.328H5.776V68.64H3.776ZM3.776 77.328C3.776 78.2705 3.97501 79.1426 4.41031 79.9096L6.14969 78.9224C5.91299 78.5054 5.776 77.9855 5.776 77.328H3.776ZM4.42672 79.9375C4.86238 80.6504 5.43857 81.2206 6.15186 81.6282L7.14414 79.8918C6.73743 79.6594 6.40162 79.3336 6.13328 78.8946L4.42672 79.9375ZM6.16236 81.6342C6.88234 82.0341 7.6569 82.24 8.472 82.24V80.24C8.00711 80.24 7.56566 80.1259 7.13364 79.8858L6.16236 81.6342ZM8.472 82.24C9.32217 82.24 10.1261 82.0405 10.8675 81.6397L9.91648 79.8803C9.47391 80.1195 8.99784 80.24 8.472 80.24V82.24ZM10.8675 81.6397C11.6113 81.2376 12.2168 80.6711 12.6747 79.9544L10.9893 78.8776C10.7112 79.3129 10.3567 79.6424 9.91648 79.8803L10.8675 81.6397ZM12.6813 79.9439C13.1617 79.1711 13.384 78.2864 13.384 77.328H11.384C11.384 77.9696 11.2383 78.4769 10.9827 78.8881L12.6813 79.9439ZM13.384 77.328V68.64H11.384V77.328H13.384ZM13.384 68.64C13.384 68.4295 13.4386 68.3322 13.4938 68.2696L11.9942 66.9464C11.5694 67.4278 11.384 68.0185 11.384 68.64H13.384ZM13.5122 68.2482C13.5399 68.215 13.572 68.176 13.728 68.176V66.176C13.052 66.176 12.4281 66.425 11.9758 66.9678L13.5122 68.2482ZM18.8899 83.592L18.1629 84.2786L18.1727 84.289L18.1828 84.2991L18.8899 83.592ZM18.8899 71.592L19.597 72.2991L19.6071 72.289L19.6169 72.2786L18.8899 71.592ZM20.9539 71.592L20.2269 72.2786L20.2367 72.289L20.2468 72.2991L20.9539 71.592ZM21.3619 74.88L20.3673 74.9839L22.3619 74.88H21.3619ZM21.1939 73.272L20.2848 72.8553L20.1709 73.1039L20.1993 73.3759L21.1939 73.272ZM21.8659 72.264L21.1399 71.5763L21.1389 71.5774L21.8659 72.264ZM22.8259 71.52L23.3047 72.3979L23.3198 72.3897L23.3346 72.3809L22.8259 71.52ZM26.3539 71.328L25.7062 72.0899L25.7154 72.0977L25.7247 72.1052L26.3539 71.328ZM26.4499 73.44L27.0856 74.2119L27.0987 74.2011L27.1115 74.1898L26.4499 73.44ZM24.7219 73.608L24.299 74.5142L24.31 74.5193L24.3211 74.5242L24.7219 73.608ZM22.9939 73.656L23.4 74.5698L23.411 74.5649L23.422 74.5597L22.9939 73.656ZM22.1779 74.28L21.4305 73.6156L21.4199 73.6276L21.4097 73.6398L22.1779 74.28ZM21.5779 75.36L20.6401 75.0127L20.6364 75.0227L20.6329 75.0329L21.5779 75.36ZM20.9539 83.592L21.661 84.2991L21.6711 84.289L21.6809 84.2786L20.9539 83.592ZM19.9219 83C19.7472 83 19.6652 82.9531 19.597 82.8849L18.1828 84.2991C18.6585 84.7749 19.2645 85 19.9219 85V83ZM19.6169 82.9054C19.5297 82.813 19.4819 82.7108 19.4819 82.536H17.4819C17.4819 83.1932 17.7061 83.795 18.1629 84.2786L19.6169 82.9054ZM19.4819 82.536V72.624H17.4819V82.536H19.4819ZM19.4819 72.624C19.4819 72.4494 19.5287 72.3674 19.597 72.2991L18.1828 70.8849C17.707 71.3606 17.4819 71.9666 17.4819 72.624H19.4819ZM19.6169 72.2786C19.6896 72.2016 19.7655 72.16 19.9219 72.16V70.16C19.2462 70.16 18.6341 70.4064 18.1629 70.9054L19.6169 72.2786ZM19.9219 72.16C20.0782 72.16 20.1542 72.2016 20.2269 72.2786L21.6809 70.9054C21.2096 70.4064 20.5975 70.16 19.9219 70.16V72.16ZM20.2468 72.2991C20.315 72.3674 20.3619 72.4494 20.3619 72.624H22.3619C22.3619 71.9666 22.1367 71.3606 21.661 70.8849L20.2468 72.2991ZM20.3619 72.624V74.88H22.3619V72.624H20.3619ZM22.3565 74.7761L22.1885 73.1681L20.1993 73.3759L20.3673 74.9839L22.3565 74.7761ZM22.1029 73.6887C22.2364 73.3974 22.4007 73.1541 22.5929 72.9506L21.1389 71.5774C20.787 71.9499 20.5033 72.3786 20.2848 72.8553L22.1029 73.6887ZM22.5918 72.9517C22.8111 72.7203 23.0485 72.5376 23.3047 72.3979L22.347 70.6421C21.8992 70.8864 21.4966 71.1997 21.1399 71.5763L22.5918 72.9517ZM23.3346 72.3809C23.6003 72.2239 23.8835 72.1093 24.1872 72.0364L23.7205 70.0916C23.2243 70.2107 22.7554 70.4001 22.3171 70.6591L23.3346 72.3809ZM24.1872 72.0364C24.513 71.9582 24.8347 71.92 25.1539 71.92V69.92C24.6731 69.92 24.1948 69.9778 23.7205 70.0916L24.1872 72.0364ZM25.1539 71.92C25.4326 71.92 25.5927 71.9934 25.7062 72.0899L27.0015 70.5661C26.4751 70.1186 25.8352 69.92 25.1539 69.92V71.92ZM25.7247 72.1052C25.8073 72.1721 25.8369 72.2185 25.8465 72.2368C25.8538 72.2508 25.8579 72.2629 25.8579 72.288H27.8579C27.8579 71.5639 27.5079 70.9756 26.9831 70.5508L25.7247 72.1052ZM25.8579 72.288C25.8579 72.6624 25.7621 72.7133 25.7883 72.6902L27.1115 74.1898C27.6817 73.6867 27.8579 72.9696 27.8579 72.288H25.8579ZM25.8142 72.6681C25.7019 72.7605 25.6261 72.776 25.5619 72.776V74.776C26.1377 74.776 26.6539 74.5675 27.0856 74.2119L25.8142 72.6681ZM25.5619 72.776C25.3836 72.776 25.2415 72.7438 25.1227 72.6918L24.3211 74.5242C24.7142 74.6962 25.1322 74.776 25.5619 74.776V72.776ZM25.1448 72.7018C24.7477 72.5165 24.3181 72.44 23.8819 72.44V74.44C24.0857 74.44 24.2161 74.4755 24.299 74.5142L25.1448 72.7018ZM23.8819 72.44C23.4229 72.44 22.9812 72.5555 22.5658 72.7523L23.422 74.5597C23.6145 74.4685 23.7648 74.44 23.8819 74.44V72.44ZM22.5877 72.7422C22.1439 72.9395 21.7605 73.2443 21.4305 73.6156L22.9253 74.9444C23.1072 74.7397 23.2679 74.6285 23.4 74.5698L22.5877 72.7422ZM21.4097 73.6398C21.0824 74.0325 20.8309 74.4976 20.6401 75.0127L22.5156 75.7073C22.6449 75.3584 22.7933 75.1035 22.9461 74.9202L21.4097 73.6398ZM20.6329 75.0329C20.4432 75.5809 20.3619 76.1931 20.3619 76.848H22.3619C22.3619 76.3509 22.4246 75.9711 22.5229 75.6871L20.6329 75.0329ZM20.3619 76.848V82.536H22.3619V76.848H20.3619ZM20.3619 82.536C20.3619 82.7108 20.3141 82.813 20.2269 82.9054L21.6809 84.2786C22.1377 83.795 22.3619 83.1932 22.3619 82.536H20.3619ZM20.2468 82.8849C20.1785 82.9531 20.0965 83 19.9219 83V85C20.5792 85 21.1852 84.7749 21.661 84.2991L20.2468 82.8849ZM38.5361 71.784L37.9885 72.6207L37.9972 72.6264L38.0061 72.632L38.5361 71.784ZM40.6481 74.112L39.7594 74.5707L39.7654 74.5818L40.6481 74.112ZM40.6481 81.048L39.7623 80.584L39.7595 80.5894L40.6481 81.048ZM38.5601 83.4L39.104 84.2392L39.1078 84.2367L38.5601 83.4ZM33.8321 83.928L34.1803 82.9906L33.8321 83.928ZM32.3441 83.136L31.7344 83.9286L31.7416 83.9342L31.7489 83.9396L32.3441 83.136ZM31.3601 82.176L30.5281 82.7307L30.5435 82.7538L30.5601 82.776L31.3601 82.176ZM31.0241 81.336L30.6374 80.4138L30.0241 80.671V81.336H31.0241ZM31.7681 81.024H32.7681V79.5203L31.3814 80.1018L31.7681 81.024ZM31.3601 83.832L32.0672 84.5391L32.0773 84.529L32.0871 84.5186L31.3601 83.832ZM29.2961 83.832L28.589 84.5391L29.2961 83.832ZM29.2961 66.672L30.0032 67.3791L30.0133 67.369L30.0231 67.3586L29.2961 66.672ZM31.3601 66.672L30.6331 67.3586L30.6429 67.369L30.653 67.3791L31.3601 66.672ZM31.7681 73.8L31.3002 74.6838L32.7681 75.4609V73.8H31.7681ZM31.3601 73.584H30.3601V74.1861L30.8922 74.4678L31.3601 73.584ZM31.6961 72.84L32.4855 73.4539L32.4935 73.4437L32.5012 73.4332L31.6961 72.84ZM32.6081 71.952L33.2081 72.752L33.2186 72.7442L33.2288 72.736L32.6081 71.952ZM33.9281 71.208L33.577 70.2716L33.5671 70.2754L33.9281 71.208ZM33.3281 74.088L33.8828 74.92L33.3281 74.088ZM32.0801 75.528L31.1856 75.0808L31.1809 75.0905L32.0801 75.528ZM32.0801 79.632L31.1722 80.0511L31.1787 80.0652L31.1857 80.0792L32.0801 79.632ZM33.3281 81.072L32.7734 81.9041L33.3281 81.072ZM37.0001 81.072L36.4454 80.24L36.4395 80.2439L36.4336 80.248L37.0001 81.072ZM38.2241 79.632L37.3251 79.194L37.3204 79.2039L38.2241 79.632ZM38.2241 75.528L37.3204 75.9561L37.3272 75.9706L37.3346 75.9848L38.2241 75.528ZM37.0001 74.088L36.4336 74.912L36.4395 74.9161L36.4454 74.92L37.0001 74.088ZM35.5361 71.92C36.4748 71.92 37.282 72.1583 37.9885 72.6207L39.0838 70.9473C38.0303 70.2577 36.8374 69.92 35.5361 69.92V71.92ZM38.0061 72.632C38.7411 73.0913 39.3251 73.7289 39.7595 74.5706L41.5367 73.6534C40.9472 72.5111 40.1232 71.5967 39.0661 70.936L38.0061 72.632ZM39.7654 74.5818C40.2044 75.4067 40.4401 76.3923 40.4401 77.568H42.4401C42.4401 76.1197 42.1478 74.8013 41.5309 73.6421L39.7654 74.5818ZM40.4401 77.568C40.4401 78.7432 40.2046 79.7397 39.7623 80.584L41.534 81.512C42.1477 80.3403 42.4401 79.0168 42.4401 77.568H40.4401ZM39.7595 80.5894C39.3216 81.4378 38.7392 82.0876 38.0125 82.5633L39.1078 84.2367C40.1411 83.5604 40.9506 82.6422 41.5367 81.5066L39.7595 80.5894ZM38.0162 82.5608C37.3236 83.0098 36.5386 83.24 35.6321 83.24V85.24C36.9017 85.24 38.0687 84.9102 39.104 84.2392L38.0162 82.5608ZM35.6321 83.24C35.1025 83.24 34.6212 83.1543 34.1803 82.9906L33.4839 84.8654C34.1631 85.1177 34.8818 85.24 35.6321 85.24V83.24ZM34.1803 82.9906C33.6989 82.8118 33.2878 82.5906 32.9394 82.3324L31.7489 83.9396C32.2644 84.3214 32.8454 84.6282 33.4839 84.8654L34.1803 82.9906ZM32.9538 82.3434C32.5887 82.0625 32.3318 81.8049 32.1601 81.576L30.5601 82.776C30.8684 83.1871 31.2675 83.5695 31.7344 83.9286L32.9538 82.3434ZM32.1922 81.6213C32.1065 81.4928 32.0599 81.4009 32.0366 81.3426C32.0125 81.2823 32.0241 81.285 32.0241 81.336H30.0241C30.0241 81.8606 30.2709 82.3449 30.5281 82.7307L32.1922 81.6213ZM31.4109 82.2582L32.1549 81.9462L31.3814 80.1018L30.6374 80.4138L31.4109 82.2582ZM30.7681 81.024V82.776H32.7681V81.024H30.7681ZM30.7681 82.776C30.7681 82.9508 30.7203 83.053 30.6331 83.1454L32.0871 84.5186C32.5439 84.035 32.7681 83.4332 32.7681 82.776H30.7681ZM30.653 83.1249C30.5848 83.1931 30.5028 83.24 30.3281 83.24V85.24C30.9855 85.24 31.5915 85.0149 32.0672 84.5391L30.653 83.1249ZM30.3281 83.24C30.1535 83.24 30.0715 83.1931 30.0032 83.1249L28.589 84.5391C29.0648 85.0149 29.6708 85.24 30.3281 85.24V83.24ZM30.0032 83.1249C29.9426 83.0642 29.8881 82.9784 29.8881 82.776H27.8881C27.8881 83.4376 28.1057 84.0558 28.589 84.5391L30.0032 83.1249ZM29.8881 82.776V67.704H27.8881V82.776H29.8881ZM29.8881 67.704C29.8881 67.5294 29.935 67.4474 30.0032 67.3791L28.589 65.9649C28.1133 66.4406 27.8881 67.0466 27.8881 67.704H29.8881ZM30.0231 67.3586C30.0958 67.2816 30.1718 67.24 30.3281 67.24V65.24C29.6525 65.24 29.0404 65.4864 28.5691 65.9854L30.0231 67.3586ZM30.3281 67.24C30.4845 67.24 30.5604 67.2816 30.6331 67.3586L32.0871 65.9854C31.6158 65.4864 31.0038 65.24 30.3281 65.24V67.24ZM30.653 67.3791C30.7213 67.4474 30.7681 67.5294 30.7681 67.704H32.7681C32.7681 67.0466 32.543 66.4406 32.0672 65.9649L30.653 67.3791ZM30.7681 67.704V73.8H32.7681V67.704H30.7681ZM32.236 72.9162L31.828 72.7002L30.8922 74.4678L31.3002 74.6838L32.236 72.9162ZM32.3601 73.584C32.3601 73.6585 32.3407 73.6864 32.3555 73.6536C32.3701 73.6213 32.4067 73.5552 32.4855 73.4539L30.9068 72.2261C30.6383 72.5713 30.3601 73.0398 30.3601 73.584H32.3601ZM32.5012 73.4332C32.6541 73.2257 32.8821 72.9965 33.2081 72.752L32.0081 71.152C31.5661 71.4835 31.1862 71.8463 30.8911 72.2468L32.5012 73.4332ZM33.2288 72.736C33.5277 72.4994 33.8786 72.2995 34.2891 72.1406L33.5671 70.2754C32.9856 70.5005 32.4565 70.7966 31.9874 71.168L33.2288 72.736ZM34.2792 72.1443C34.6762 71.9955 35.0931 71.92 35.5361 71.92V69.92C34.8592 69.92 34.204 70.0365 33.577 70.2717L34.2792 72.1443ZM35.1761 72.56C34.2971 72.56 33.4834 72.7826 32.7734 73.2559L33.8828 74.92C34.2288 74.6894 34.6471 74.56 35.1761 74.56V72.56ZM32.7734 73.2559C32.0903 73.7113 31.5618 74.3286 31.1857 75.0808L32.9746 75.9752C33.2065 75.5114 33.5099 75.1687 33.8828 74.92L32.7734 73.2559ZM31.1809 75.0905C30.8164 75.8398 30.6481 76.6736 30.6481 77.568H32.6481C32.6481 76.9264 32.7679 76.4002 32.9794 75.9655L31.1809 75.0905ZM30.6481 77.568C30.6481 78.4509 30.818 79.2837 31.1722 80.0511L32.9881 79.2129C32.7662 78.7323 32.6481 78.1891 32.6481 77.568H30.6481ZM31.1857 80.0792C31.5618 80.8314 32.0903 81.4487 32.7734 81.9041L33.8828 80.24C33.5099 79.9913 33.2065 79.6486 32.9746 79.1848L31.1857 80.0792ZM32.7734 81.9041C33.4834 82.3774 34.2971 82.6 35.1761 82.6V80.6C34.6471 80.6 34.2288 80.4706 33.8828 80.24L32.7734 81.9041ZM35.1761 82.6C36.0545 82.6 36.8664 82.3775 37.5667 81.896L36.4336 80.248C36.1099 80.4705 35.7057 80.6 35.1761 80.6V82.6ZM37.5548 81.9041C38.2428 81.4454 38.7671 80.8216 39.1279 80.0601L37.3204 79.2039C37.1051 79.6584 36.8134 79.9946 36.4454 80.24L37.5548 81.9041ZM39.1231 80.07C39.499 79.2984 39.6801 78.4589 39.6801 77.568H37.6801C37.6801 78.1811 37.5572 78.7176 37.3251 79.194L39.1231 80.07ZM39.6801 77.568C39.6801 76.6657 39.5007 75.8249 39.1137 75.0712L37.3346 75.9848C37.5555 76.4151 37.6801 76.9343 37.6801 77.568H39.6801ZM39.1279 75.0999C38.7671 74.3384 38.2428 73.7146 37.5548 73.2559L36.4454 74.92C36.8134 75.1654 37.1051 75.5016 37.3204 75.9561L39.1279 75.0999ZM37.5667 73.264C36.8664 72.7825 36.0545 72.56 35.1761 72.56V74.56C35.7057 74.56 36.1099 74.6895 36.4336 74.912L37.5667 73.264ZM55.5024 71.328L54.7953 72.0351L54.7953 72.0351L55.5024 71.328ZM55.5024 83.592L56.2095 84.2991L56.2196 84.289L56.2295 84.2786L55.5024 83.592ZM53.4384 83.592L52.7114 84.2786L52.7212 84.289L52.7313 84.2991L53.4384 83.592ZM53.0304 81.36L53.4091 80.4345L52.0304 79.8705V81.36H53.0304ZM53.5584 81.576H54.5584V80.9046L53.9371 80.6505L53.5584 81.576ZM53.2224 82.344L54.0118 82.9579L54.0198 82.9477L54.0275 82.9372L53.2224 82.344ZM52.3104 83.208L52.9104 84.008L52.3104 83.208ZM50.9424 83.952L51.2936 84.8883L51.3013 84.8854L51.309 84.8824L50.9424 83.952ZM46.2624 83.4L45.7216 84.2412L45.7324 84.248L46.2624 83.4ZM44.1264 81.048L43.2349 81.5009L43.2392 81.5094L43.2437 81.5178L44.1264 81.048ZM44.1264 74.136L43.2406 73.672L43.2378 73.6774L44.1264 74.136ZM46.2384 71.784L46.7754 72.6277L46.7861 72.6207L46.2384 71.784ZM51.0624 71.232L50.7228 72.1726L51.0624 71.232ZM52.5504 72.024L51.9407 72.8166L51.9479 72.8222L51.9552 72.8276L52.5504 72.024ZM53.5344 73.008L52.7024 73.5627L52.7178 73.5858L52.7344 73.608L53.5344 73.008ZM53.8944 73.824L54.2341 74.7646L54.8944 74.5261V73.824H53.8944ZM53.0304 74.136H52.0304V75.5603L53.3701 75.0766L53.0304 74.136ZM53.4384 71.352L54.1455 72.0591L54.1556 72.049L54.1655 72.0386L53.4384 71.352ZM51.4704 81.072L50.9157 80.24L51.4704 81.072ZM52.6944 79.632L51.8 79.1848L51.7953 79.1943L51.7907 79.2039L52.6944 79.632ZM52.6944 75.528L51.7907 75.9561L51.7953 75.9657L51.8 75.9752L52.6944 75.528ZM51.4704 74.088L50.9157 74.92L51.4704 74.088ZM47.7984 74.088L48.3531 74.92L47.7984 74.088ZM46.5504 75.528L45.656 75.0808L45.6513 75.0903L45.6467 75.0999L46.5504 75.528ZM46.5504 79.632L45.6467 80.0601L45.6513 80.0697L45.656 80.0792L46.5504 79.632ZM47.7984 81.072L48.3531 80.24L47.7984 81.072ZM54.4704 71.92C54.6451 71.92 54.7271 71.9669 54.7953 72.0351L56.2095 70.6209C55.7338 70.1451 55.1278 69.92 54.4704 69.92V71.92ZM54.7953 72.0351C54.856 72.0958 54.9104 72.1816 54.9104 72.384H56.9104C56.9104 71.7224 56.6929 71.1042 56.2095 70.6209L54.7953 72.0351ZM54.9104 72.384V82.536H56.9104V72.384H54.9104ZM54.9104 82.536C54.9104 82.7108 54.8626 82.813 54.7754 82.9054L56.2295 84.2786C56.6862 83.795 56.9104 83.1932 56.9104 82.536H54.9104ZM54.7953 82.8849C54.7271 82.9531 54.6451 83 54.4704 83V85C55.1278 85 55.7338 84.7749 56.2095 84.2991L54.7953 82.8849ZM54.4704 83C54.2958 83 54.2138 82.9531 54.1455 82.8849L52.7313 84.2991C53.2071 84.7749 53.8131 85 54.4704 85V83ZM54.1655 82.9054C54.0782 82.813 54.0304 82.7108 54.0304 82.536H52.0304C52.0304 83.1932 52.2546 83.795 52.7114 84.2786L54.1655 82.9054ZM54.0304 82.536V81.36H52.0304V82.536H54.0304ZM52.6518 82.2855L53.1798 82.5015L53.9371 80.6505L53.4091 80.4345L52.6518 82.2855ZM52.5584 81.576C52.5584 81.5034 52.5769 81.4805 52.5583 81.5232C52.5404 81.5641 52.4996 81.6392 52.4174 81.7508L54.0275 82.9372C54.2878 82.5839 54.5584 82.1112 54.5584 81.576H52.5584ZM52.4331 81.7301C52.2777 81.9298 52.0443 82.1576 51.7104 82.408L52.9104 84.008C53.3446 83.6824 53.7192 83.3342 54.0118 82.9579L52.4331 81.7301ZM51.7104 82.408C51.4097 82.6336 51.0353 82.8406 50.5759 83.0216L51.309 84.8824C51.9056 84.6474 52.4432 84.3584 52.9104 84.008L51.7104 82.408ZM50.5913 83.0157C50.2035 83.1611 49.7639 83.24 49.2624 83.24V85.24C49.977 85.24 50.6574 85.1269 51.2936 84.8883L50.5913 83.0157ZM49.2624 83.24C48.337 83.24 47.5222 83.0081 46.7924 82.552L45.7324 84.248C46.7947 84.9119 47.9798 85.24 49.2624 85.24V83.24ZM46.8032 82.5588C46.0591 82.0804 45.4614 81.4278 45.0092 80.5782L43.2437 81.5178C43.8475 82.6522 44.6738 83.5676 45.7217 84.2412L46.8032 82.5588ZM45.018 80.5951C44.5871 79.7467 44.3584 78.7538 44.3584 77.592H42.3584C42.3584 79.0222 42.6418 80.3333 43.2349 81.5009L45.018 80.5951ZM44.3584 77.592C44.3584 76.4117 44.5881 75.4219 45.0151 74.5946L43.2378 73.6774C42.6408 74.8341 42.3584 76.1483 42.3584 77.592H44.3584ZM45.0123 74.6C45.4667 73.7324 46.056 73.0854 46.7753 72.6277L45.7016 70.9403C44.6608 71.6026 43.8421 72.5236 43.2406 73.672L45.0123 74.6ZM46.7861 72.6207C47.5 72.1534 48.285 71.92 49.1664 71.92V69.92C47.9039 69.92 46.7369 70.2626 45.6908 70.9473L46.7861 72.6207ZM49.1664 71.92C49.7528 71.92 50.2683 72.0084 50.7228 72.1726L51.4021 70.2914C50.7046 70.0396 49.9561 69.92 49.1664 69.92V71.92ZM50.7228 72.1726C51.2175 72.3512 51.6189 72.5691 51.9407 72.8166L53.1601 71.2314C52.65 70.8389 52.0594 70.5288 51.4021 70.2914L50.7228 72.1726ZM51.9552 72.8276C52.3234 73.1003 52.5597 73.3486 52.7024 73.5627L54.3665 72.4533C54.0612 71.9954 53.6415 71.5877 53.1457 71.2204L51.9552 72.8276ZM52.7344 73.608C52.8234 73.7266 52.8687 73.8084 52.8895 73.8556C52.9109 73.904 52.8944 73.8885 52.8944 73.824H54.8944C54.8944 73.2706 54.6142 72.781 54.3344 72.408L52.7344 73.608ZM53.5548 72.8834L52.6908 73.1954L53.3701 75.0766L54.2341 74.7646L53.5548 72.8834ZM54.0304 74.136V72.384H52.0304V74.136H54.0304ZM54.0304 72.384C54.0304 72.2094 54.0773 72.1274 54.1455 72.0591L52.7313 70.6449C52.2556 71.1206 52.0304 71.7266 52.0304 72.384H54.0304ZM54.1655 72.0386C54.2382 71.9616 54.3141 71.92 54.4704 71.92V69.92C53.7948 69.92 53.1827 70.1664 52.7114 70.6654L54.1655 72.0386ZM49.6224 82.6C50.5014 82.6 51.3151 82.3774 52.0251 81.9041L50.9157 80.24C50.5697 80.4706 50.1515 80.6 49.6224 80.6V82.6ZM52.0251 81.9041C52.7131 81.4454 53.2374 80.8216 53.5982 80.0601L51.7907 79.2039C51.5754 79.6584 51.2838 79.9946 50.9157 80.24L52.0251 81.9041ZM53.5889 80.0792C53.9694 79.3181 54.1504 78.4825 54.1504 77.592H52.1504C52.1504 78.2055 52.0275 78.7299 51.8 79.1848L53.5889 80.0792ZM54.1504 77.592C54.1504 76.6891 53.9708 75.8447 53.5889 75.0808L51.8 75.9752C52.026 76.4273 52.1504 76.9589 52.1504 77.592H54.1504ZM53.5982 75.0999C53.2374 74.3384 52.7131 73.7146 52.0251 73.2559L50.9157 74.92C51.2838 75.1654 51.5754 75.5016 51.7907 75.9561L53.5982 75.0999ZM52.0251 73.2559C51.3151 72.7826 50.5014 72.56 49.6224 72.56V74.56C50.1515 74.56 50.5697 74.6894 50.9157 74.92L52.0251 73.2559ZM49.6224 72.56C48.7544 72.56 47.9499 72.7852 47.2437 73.2559L48.3531 74.92C48.703 74.6868 49.1145 74.56 49.6224 74.56V72.56ZM47.2437 73.2559C46.5606 73.7113 46.0321 74.3286 45.656 75.0808L47.4449 75.9752C47.6768 75.5114 47.9802 75.1687 48.3531 74.92L47.2437 73.2559ZM45.6467 75.0999C45.2869 75.8595 45.1184 76.6969 45.1184 77.592H47.1184C47.1184 76.9511 47.238 76.4125 47.4542 75.9561L45.6467 75.0999ZM45.1184 77.592C45.1184 78.4745 45.2882 79.3033 45.6467 80.0601L47.4542 79.2039C47.2367 78.7447 47.1184 78.2135 47.1184 77.592H45.1184ZM45.656 80.0792C46.0321 80.8314 46.5606 81.4487 47.2437 81.9041L48.3531 80.24C47.9802 79.9913 47.6768 79.6486 47.4449 79.1848L45.656 80.0792ZM47.2437 81.9041C47.9499 82.3748 48.7544 82.6 49.6224 82.6V80.6C49.1145 80.6 48.703 80.4732 48.3531 80.24L47.2437 81.9041ZM68.5807 71.664L67.9486 72.4389L67.9585 72.4468L68.5807 71.664ZM69.8528 73.656L68.8871 73.916L68.8901 73.9271L68.8934 73.9382L69.8528 73.656ZM69.8047 83.592L70.5119 84.2991L70.522 84.289L70.5318 84.2786L69.8047 83.592ZM67.7408 83.592L67.0137 84.2786L67.0235 84.289L67.0336 84.2991L67.7408 83.592ZM67.1168 74.976L66.158 75.2601L66.1644 75.2818L66.1718 75.3031L67.1168 74.976ZM66.3968 73.944L65.8086 74.7527L66.3968 73.944ZM63.2528 73.944L62.7566 73.0758L62.7497 73.0797L62.7429 73.0837L63.2528 73.944ZM62.2448 74.976L61.3705 74.4903L61.3643 74.5019L62.2448 74.976ZM61.5008 83.592L62.2079 84.2991L62.218 84.289L62.2278 84.2786L61.5008 83.592ZM59.4367 83.592L58.7097 84.2786L58.7195 84.289L58.7296 84.2991L59.4367 83.592ZM59.4367 71.592L60.1439 72.2991L60.154 72.289L60.1638 72.2786L59.4367 71.592ZM61.5008 71.592L60.7737 72.2786L60.7835 72.289L60.7936 72.2991L61.5008 71.592ZM61.9087 73.656L61.7126 74.6366L62.9087 74.8758V73.656H61.9087ZM61.5488 73.584L60.665 73.1161L60.0374 74.3015L61.3526 74.5646L61.5488 73.584ZM62.1727 72.72L62.918 73.3868L62.9265 73.3773L62.9347 73.3676L62.1727 72.72ZM63.1328 71.832L63.7271 72.6362L63.1328 71.832ZM64.3808 71.184L64.7067 72.1294L64.7212 72.1244L64.7354 72.119L64.3808 71.184ZM65.8928 71.92C66.9587 71.92 67.5901 72.1464 67.9486 72.4389L69.2129 70.8891C68.3554 70.1896 67.1948 69.92 65.8928 69.92V71.92ZM67.9585 72.4468C68.4013 72.7988 68.714 73.2728 68.8871 73.916L70.8184 73.396C70.5435 72.3752 70.0082 71.5212 69.203 70.8812L67.9585 72.4468ZM68.8934 73.9382C69.102 74.6474 69.2128 75.4624 69.2128 76.392H71.2128C71.2128 75.3056 71.0835 74.2966 70.8121 73.3738L68.8934 73.9382ZM69.2128 76.392V82.536H71.2128V76.392H69.2128ZM69.2128 82.536C69.2128 82.7108 69.165 82.813 69.0777 82.9054L70.5318 84.2786C70.9885 83.795 71.2128 83.1932 71.2128 82.536H69.2128ZM69.0976 82.8849C69.0294 82.9531 68.9474 83 68.7728 83V85C69.4301 85 70.0361 84.7749 70.5119 84.2991L69.0976 82.8849ZM68.7728 83C68.5981 83 68.5161 82.9531 68.4479 82.8849L67.0336 84.2991C67.5094 84.7749 68.1154 85 68.7728 85V83ZM68.4678 82.9054C68.3805 82.813 68.3327 82.7108 68.3327 82.536H66.3327C66.3327 83.1932 66.557 83.795 67.0137 84.2786L68.4678 82.9054ZM68.3327 82.536V76.392H66.3327V82.536H68.3327ZM68.3327 76.392C68.3327 75.7742 68.2486 75.1887 68.0617 74.6489L66.1718 75.3031C66.2729 75.5953 66.3327 75.9538 66.3327 76.392H68.3327ZM68.0755 74.6919C67.8874 74.057 67.5214 73.5254 66.9849 73.1353L65.8086 74.7527C65.9761 74.8746 66.0901 75.031 66.158 75.2601L68.0755 74.6919ZM66.9849 73.1353C66.3951 72.7063 65.6508 72.56 64.8848 72.56V74.56C65.4307 74.56 65.6944 74.6697 65.8086 74.7527L66.9849 73.1353ZM64.8848 72.56C64.1121 72.56 63.388 72.715 62.7566 73.0758L63.7489 74.8122C64.0135 74.661 64.3774 74.56 64.8848 74.56V72.56ZM62.7429 73.0837C62.161 73.4286 61.6981 73.9008 61.3706 74.4904L63.1189 75.4616C63.2714 75.1872 63.4805 74.9714 63.7626 74.8043L62.7429 73.0837ZM61.3643 74.5019C61.053 75.0801 60.9087 75.7183 60.9087 76.392H62.9087C62.9087 76.0097 62.9885 75.7039 63.1252 75.4501L61.3643 74.5019ZM60.9087 76.392V82.536H62.9087V76.392H60.9087ZM60.9087 82.536C60.9087 82.7108 60.861 82.813 60.7737 82.9054L62.2278 84.2786C62.6845 83.795 62.9087 83.1932 62.9087 82.536H60.9087ZM60.7936 82.8849C60.7254 82.9531 60.6434 83 60.4688 83V85C61.1261 85 61.7321 84.7749 62.2079 84.2991L60.7936 82.8849ZM60.4688 83C60.2941 83 60.2121 82.9531 60.1439 82.8849L58.7296 84.2991C59.2054 84.7749 59.8114 85 60.4688 85V83ZM60.1638 82.9054C60.0765 82.813 60.0288 82.7108 60.0288 82.536H58.0288C58.0288 83.1932 58.253 83.795 58.7097 84.2786L60.1638 82.9054ZM60.0288 82.536V72.624H58.0288V82.536H60.0288ZM60.0288 72.624C60.0288 72.4494 60.0756 72.3674 60.1439 72.2991L58.7296 70.8849C58.2539 71.3606 58.0288 71.9666 58.0288 72.624H60.0288ZM60.1638 72.2786C60.2365 72.2016 60.3124 72.16 60.4688 72.16V70.16C59.7931 70.16 59.181 70.4064 58.7097 70.9054L60.1638 72.2786ZM60.4688 72.16C60.6251 72.16 60.701 72.2016 60.7737 72.2786L62.2278 70.9054C61.7565 70.4064 61.1444 70.16 60.4688 70.16V72.16ZM60.7936 72.2991C60.8619 72.3674 60.9087 72.4494 60.9087 72.624H62.9087C62.9087 71.9666 62.6836 71.3606 62.2079 70.8849L60.7936 72.2991ZM60.9087 72.624V73.656H62.9087V72.624H60.9087ZM62.1049 72.6754L61.7449 72.6034L61.3526 74.5646L61.7126 74.6366L62.1049 72.6754ZM62.4325 74.0519C62.5286 73.8704 62.6837 73.6487 62.918 73.3868L61.4275 72.0532C61.1178 72.3993 60.8569 72.7536 60.665 73.1161L62.4325 74.0519ZM62.9347 73.3676C63.1528 73.111 63.4154 72.8666 63.7271 72.6362L62.5384 71.0278C62.1141 71.3414 61.7367 71.689 61.4108 72.0724L62.9347 73.3676ZM63.7271 72.6362C64.0077 72.4288 64.3319 72.2586 64.7067 72.1294L64.0548 70.2386C63.5016 70.4294 62.9939 70.6912 62.5384 71.0278L63.7271 72.6362ZM64.7354 72.119C65.0757 71.9899 65.4583 71.92 65.8928 71.92V69.92C65.2392 69.92 64.6138 70.0261 64.0261 70.249L64.7354 72.119ZM75.7736 67.368L75.303 68.2504L75.3373 68.2686L75.3728 68.2842L75.7736 67.368ZM76.3496 67.824L77.1882 67.2791L77.1817 67.2693L76.3496 67.824ZM82.1816 76.8L82.1417 77.7992L84.0736 77.8765L83.0202 76.2552L82.1816 76.8ZM80.9816 76.752L80.1506 76.1958L79.1572 77.6798L80.9417 77.7512L80.9816 76.752ZM86.9576 67.824L86.1398 67.2485L86.1331 67.2581L86.1266 67.2678L86.9576 67.824ZM89.1656 67.584L88.4988 68.3292V68.3292L89.1656 67.584ZM89.2136 83.592L89.9207 84.2991L89.9308 84.289L89.9406 84.2786L89.2136 83.592ZM87.0296 83.592L86.3026 84.2786L86.3222 84.2994L86.343 84.319L87.0296 83.592ZM86.6216 71.232L86.8465 70.2576L85.6216 69.9749V71.232H86.6216ZM87.5576 71.448L88.3938 71.9965L89.181 70.7963L87.7825 70.4736L87.5576 71.448ZM82.6616 78.912L83.4356 79.5452L83.4689 79.5045L83.4978 79.4605L82.6616 78.912ZM82.1096 79.368L81.6135 78.4998L81.5994 78.5078L81.5855 78.5163L82.1096 79.368ZM81.4616 79.536L81.5329 78.5385L81.4589 78.5333L81.3849 78.5389L81.4616 79.536ZM80.8136 79.368L80.2895 80.2197L80.3034 80.2282L80.3175 80.2362L80.8136 79.368ZM80.2856 78.912L79.4405 79.4465L79.4731 79.498L79.5117 79.5452L80.2856 78.912ZM75.7016 71.664L74.8038 71.2236L74.5575 71.7258L74.8565 72.1985L75.7016 71.664ZM76.3256 70.392H77.3256L75.4278 69.9516L76.3256 70.392ZM75.9416 83.592L76.6698 84.2774L76.6796 84.267L76.689 84.2564L75.9416 83.592ZM73.9496 83.592L73.2022 84.2564L73.2117 84.267L73.2214 84.2774L73.9496 83.592ZM73.9976 67.608L73.3099 66.882L73.3001 66.8913L73.2905 66.9009L73.9976 67.608ZM75.0776 68.176C75.1059 68.176 75.1771 68.1832 75.303 68.2504L76.2442 66.4856C75.8901 66.2968 75.4974 66.176 75.0776 66.176V68.176ZM75.3728 68.2842C75.4907 68.3357 75.5163 68.3768 75.5176 68.3787L77.1817 67.2693C76.927 66.8872 76.5685 66.6243 76.1744 66.4518L75.3728 68.2842ZM75.5111 68.3688L81.3431 77.3448L83.0202 76.2552L77.1882 67.2792L75.5111 68.3688ZM82.2216 75.8008L81.0216 75.7528L80.9417 77.7512L82.1417 77.7992L82.2216 75.8008ZM81.8126 77.3082L87.7886 68.3802L86.1266 67.2678L80.1506 76.1958L81.8126 77.3082ZM87.7754 68.3995C87.9141 68.2024 88.0155 68.176 88.1336 68.176V66.176C87.2918 66.176 86.6091 66.5816 86.1398 67.2485L87.7754 68.3995ZM88.1336 68.176C88.2554 68.176 88.3657 68.2101 88.4988 68.3292L89.8324 66.8388C89.3575 66.4139 88.7799 66.176 88.1336 66.176V68.176ZM88.4988 68.3292C88.5771 68.3992 88.6216 68.4735 88.6216 68.64H90.6216C90.6216 67.9425 90.3622 67.3128 89.8324 66.8388L88.4988 68.3292ZM88.6216 68.64V82.536H90.6216V68.64H88.6216ZM88.6216 82.536C88.6216 82.7108 88.5738 82.813 88.4866 82.9054L89.9406 84.2786C90.3974 83.795 90.6216 83.1932 90.6216 82.536H88.6216ZM88.5065 82.8849C88.453 82.9384 88.3636 83 88.1336 83V85C88.7997 85 89.4303 84.7896 89.9207 84.2991L88.5065 82.8849ZM88.1336 83C87.9048 83 87.7939 82.9384 87.7162 82.865L86.343 84.319C86.8413 84.7896 87.4664 85 88.1336 85V83ZM87.7566 82.9054C87.6694 82.813 87.6216 82.7108 87.6216 82.536H85.6216C85.6216 83.1932 85.8458 83.795 86.3026 84.2786L87.7566 82.9054ZM87.6216 82.536V71.232H85.6216V82.536H87.6216ZM86.3968 72.2064L87.3328 72.4224L87.7825 70.4736L86.8465 70.2576L86.3968 72.2064ZM86.7215 70.8995L81.8255 78.3635L83.4978 79.4605L88.3938 71.9965L86.7215 70.8995ZM81.8877 78.2788C81.8308 78.3482 81.7454 78.4244 81.6135 78.4998L82.6058 80.2362C82.9218 80.0556 83.2044 79.8278 83.4356 79.5452L81.8877 78.2788ZM81.5855 78.5163C81.5583 78.5331 81.5437 78.5372 81.5407 78.538C81.5384 78.5386 81.5373 78.5389 81.5329 78.5385L81.3904 80.5335C81.8417 80.5657 82.2639 80.4473 82.6337 80.2197L81.5855 78.5163ZM81.3849 78.5389C81.3984 78.5379 81.4032 78.5402 81.3946 78.538C81.3845 78.5354 81.3565 78.5265 81.3098 78.4998L80.3175 80.2362C80.6738 80.4399 81.088 80.5677 81.5383 80.5331L81.3849 78.5389ZM81.3377 78.5163C81.2176 78.4424 81.128 78.3624 81.0596 78.2788L79.5117 79.5452C79.7313 79.8136 79.9937 80.0376 80.2895 80.2197L81.3377 78.5163ZM81.1308 78.3775L76.5468 71.1295L74.8565 72.1985L79.4405 79.4465L81.1308 78.3775ZM76.5994 72.1044L77.2234 70.8324L75.4278 69.9516L74.8038 71.2236L76.5994 72.1044ZM75.3256 70.392V82.536H77.3256V70.392H75.3256ZM75.3256 82.536C75.3256 82.7282 75.274 82.8379 75.1942 82.9276L76.689 84.2564C77.1213 83.7701 77.3256 83.1758 77.3256 82.536H75.3256ZM75.2134 82.9066C75.1689 82.9539 75.1086 83 74.9336 83V85C75.5907 85 76.2023 84.7741 76.6698 84.2774L75.2134 82.9066ZM74.9336 83C74.7875 83 74.7304 82.9625 74.6778 82.9066L73.2214 84.2774C73.6809 84.7655 74.2797 85 74.9336 85V83ZM74.697 82.9276C74.6173 82.8379 74.5656 82.7282 74.5656 82.536H72.5656C72.5656 83.1758 72.77 83.7701 73.2022 84.2564L74.697 82.9276ZM74.5656 82.536V68.64H72.5656V82.536H74.5656ZM74.5656 68.64C74.5656 68.5106 74.6004 68.4194 74.7047 68.3151L73.2905 66.9009C72.8188 67.3726 72.5656 67.9694 72.5656 68.64H74.5656ZM74.6854 68.334C74.805 68.2206 74.9194 68.176 75.0776 68.176V66.176C74.4039 66.176 73.7982 66.4194 73.3099 66.882L74.6854 68.334ZM104.558 81.072L103.695 80.5656L103.693 80.5699L104.558 81.072ZM102.206 83.4L101.714 82.5292L101.708 82.5326L102.206 83.4ZM95.6057 83.4L95.108 84.2674L95.1141 84.2708L95.6057 83.4ZM93.2537 81.072L92.3854 81.5681L92.3901 81.5763L92.395 81.5845L93.2537 81.072ZM93.2537 74.136L92.3914 73.6296L92.3889 73.6339L93.2537 74.136ZM95.6057 71.784L96.1034 72.6514L96.1078 72.6488L95.6057 71.784ZM102.206 71.784L101.697 72.6452L101.706 72.6501L101.714 72.6548L102.206 71.784ZM104.558 74.136L103.689 74.6321L103.694 74.6403L103.699 74.6485L104.558 74.136ZM102.062 75.48L101.177 75.9457L101.184 75.9598L101.192 75.9736L102.062 75.48ZM100.742 74.064L100.216 74.9149L100.227 74.9215L100.742 74.064ZM97.0697 74.064L96.5552 73.2064L96.5442 73.2132L97.0697 74.064ZM95.7497 75.48L94.8744 74.9963L94.87 75.0045L95.7497 75.48ZM95.7497 79.704L94.8648 80.1697L94.8722 80.1838L94.88 80.1976L95.7497 79.704ZM97.0697 81.096L96.5442 81.9469L96.5552 81.9535L97.0697 81.096ZM100.742 81.096L100.227 80.2384L100.216 80.2452L100.742 81.096ZM102.062 79.704L101.186 79.2203L101.182 79.2285L102.062 79.704ZM104.446 77.592C104.446 78.7482 104.187 79.7292 103.695 80.5656L105.42 81.5784C106.113 80.3987 106.446 79.0598 106.446 77.592H104.446ZM103.693 80.5699C103.206 81.4091 102.55 82.0573 101.714 82.5292L102.697 84.2708C103.845 83.6227 104.758 82.7189 105.422 81.5741L103.693 80.5699ZM101.708 82.5326C100.896 82.9988 99.9736 83.24 98.9177 83.24V85.24C100.294 85.24 101.564 84.9212 102.703 84.2674L101.708 82.5326ZM98.9177 83.24C97.8619 83.24 96.9292 82.9988 96.0973 82.5292L95.1141 84.2708C96.2662 84.9212 97.5414 85.24 98.9177 85.24V83.24ZM96.1034 82.5326C95.2802 82.0604 94.6189 81.4083 94.1124 80.5595L92.395 81.5845C93.0724 82.7197 93.9791 83.6196 95.108 84.2674L96.1034 82.5326ZM94.1219 80.5759C93.643 79.7378 93.3897 78.753 93.3897 77.592H91.3897C91.3897 79.055 91.7123 80.3902 92.3854 81.5681L94.1219 80.5759ZM93.3897 77.592C93.3897 76.4306 93.6431 75.4568 94.1185 74.6381L92.3889 73.6339C91.7122 74.7992 91.3897 76.1294 91.3897 77.592H93.3897ZM94.116 74.6424C94.6235 73.7783 95.2842 73.1214 96.1034 72.6514L95.108 70.9166C93.9752 71.5666 93.0679 72.4777 92.3914 73.6296L94.116 74.6424ZM96.1078 72.6488C96.9381 72.1667 97.8671 71.92 98.9177 71.92V69.92C97.5363 69.92 96.2573 70.2493 95.1036 70.9192L96.1078 72.6488ZM98.9177 71.92C99.9684 71.92 100.887 72.1667 101.697 72.6452L102.714 70.9228C101.573 70.2493 100.299 69.92 98.9177 69.92V71.92ZM101.714 72.6548C102.546 73.1244 103.201 73.7776 103.689 74.6321L105.426 73.6399C104.762 72.4784 103.849 71.5636 102.697 70.9132L101.714 72.6548ZM103.699 74.6485C104.186 75.4654 104.446 76.4354 104.446 77.592H106.446C106.446 76.1246 106.113 74.7906 105.416 73.6235L103.699 74.6485ZM103.566 77.592C103.566 76.6373 103.368 75.7562 102.931 74.9864L101.192 75.9736C101.427 76.3878 101.566 76.9147 101.566 77.592H103.566ZM102.947 75.0143C102.546 74.253 101.982 73.6417 101.256 73.2065L100.227 74.9215C100.622 75.1583 100.937 75.491 101.177 75.9457L102.947 75.0143ZM101.267 73.2132C100.557 72.7746 99.7654 72.56 98.9177 72.56V74.56C99.414 74.56 99.8383 74.6814 100.216 74.9148L101.267 73.2132ZM98.9177 72.56C98.07 72.56 97.2753 72.7745 96.5552 73.2065L97.5842 74.9215C97.9841 74.6815 98.4214 74.56 98.9177 74.56V72.56ZM96.5442 73.2132C95.8415 73.6472 95.2862 74.2513 94.8744 74.9963L96.6249 75.9637C96.8852 75.4927 97.2098 75.1528 97.5952 74.9148L96.5442 73.2132ZM94.87 75.0045C94.4559 75.7705 94.2697 76.645 94.2697 77.592H96.2697C96.2697 76.907 96.4035 76.3735 96.6294 75.9555L94.87 75.0045ZM94.2697 77.592C94.2697 78.5275 94.4576 79.3962 94.8648 80.1697L96.6346 79.2383C96.4017 78.7958 96.2697 78.2565 96.2697 77.592H94.2697ZM94.88 80.1976C95.2934 80.9259 95.8481 81.5168 96.5442 81.9468L97.5952 80.2452C97.2033 80.0032 96.878 79.6661 96.6194 79.2104L94.88 80.1976ZM96.5552 81.9535C97.2753 82.3855 98.07 82.6 98.9177 82.6V80.6C98.4214 80.6 97.9841 80.4785 97.5842 80.2385L96.5552 81.9535ZM98.9177 82.6C99.7654 82.6 100.557 82.3854 101.267 81.9468L100.216 80.2452C99.8383 80.4786 99.414 80.6 98.9177 80.6V82.6ZM101.256 81.9535C101.975 81.5223 102.539 80.9243 102.941 80.1795L101.182 79.2285C100.945 79.6677 100.629 79.9977 100.227 80.2385L101.256 81.9535ZM102.937 80.1877C103.366 79.4105 103.566 78.5353 103.566 77.592H101.566C101.566 78.2487 101.429 78.7815 101.186 79.2203L102.937 80.1877ZM117.614 71.784L117.067 72.6207L117.075 72.6264L117.084 72.632L117.614 71.784ZM119.726 74.112L118.838 74.5707L118.844 74.5818L119.726 74.112ZM119.726 81.048L118.84 80.584L118.838 80.5894L119.726 81.048ZM117.638 83.4L118.182 84.2392L118.186 84.2367L117.638 83.4ZM112.91 83.928L113.258 82.9906L112.91 83.928ZM111.422 83.136L110.813 83.9286L110.82 83.9342L110.827 83.9396L111.422 83.136ZM110.438 82.176L109.606 82.7307L109.622 82.7538L109.638 82.776L110.438 82.176ZM110.102 81.336L109.716 80.4138L109.102 80.671V81.336H110.102ZM110.846 81.024H111.846V79.5203L110.46 80.1018L110.846 81.024ZM110.438 88.368L109.731 87.6609L109.721 87.671L109.711 87.6814L110.438 88.368ZM108.374 88.392L107.667 89.0991L108.374 88.392ZM108.374 71.592L109.081 72.2991L109.091 72.289L109.101 72.2786L108.374 71.592ZM110.438 71.592L109.711 72.2786L109.721 72.289L109.731 72.2991L110.438 71.592ZM110.846 73.8L110.378 74.6838L111.846 75.4609V73.8H110.846ZM110.438 73.584H109.438V74.1861L109.97 74.4678L110.438 73.584ZM110.774 72.84L111.564 73.4539L111.572 73.4437L111.579 73.4332L110.774 72.84ZM111.686 71.952L112.286 72.752L112.297 72.7442L112.307 72.736L111.686 71.952ZM113.006 71.208L112.655 70.2716L112.645 70.2754L113.006 71.208ZM112.406 74.088L112.961 74.92L112.406 74.088ZM111.158 75.528L110.264 75.0808L110.259 75.0905L111.158 75.528ZM111.158 79.632L110.25 80.0511L110.257 80.0652L110.264 80.0792L111.158 79.632ZM112.406 81.072L111.852 81.9041L112.406 81.072ZM116.078 81.072L115.524 80.24L115.518 80.2439L115.512 80.248L116.078 81.072ZM117.302 79.632L116.403 79.194L116.399 79.2039L117.302 79.632ZM117.302 75.528L116.399 75.9561L116.405 75.9706L116.413 75.9848L117.302 75.528ZM116.078 74.088L115.512 74.912L115.518 74.9161L115.524 74.92L116.078 74.088ZM114.614 71.92C115.553 71.92 116.36 72.1583 117.067 72.6207L118.162 70.9473C117.108 70.2577 115.916 69.92 114.614 69.92V71.92ZM117.084 72.632C117.819 73.0913 118.403 73.7289 118.838 74.5706L120.615 73.6534C120.025 72.5111 119.201 71.5967 118.144 70.936L117.084 72.632ZM118.844 74.5818C119.283 75.4067 119.518 76.3923 119.518 77.568H121.518C121.518 76.1197 121.226 74.8013 120.609 73.6421L118.844 74.5818ZM119.518 77.568C119.518 78.7432 119.283 79.7397 118.84 80.584L120.612 81.512C121.226 80.3403 121.518 79.0168 121.518 77.568H119.518ZM118.838 80.5894C118.4 81.4378 117.817 82.0876 117.091 82.5633L118.186 84.2367C119.219 83.5604 120.029 82.6422 120.615 81.5066L118.838 80.5894ZM117.094 82.5608C116.402 83.0098 115.617 83.24 114.71 83.24V85.24C115.98 85.24 117.147 84.9102 118.182 84.2392L117.094 82.5608ZM114.71 83.24C114.181 83.24 113.699 83.1543 113.258 82.9906L112.562 84.8654C113.241 85.1177 113.96 85.24 114.71 85.24V83.24ZM113.258 82.9906C112.777 82.8118 112.366 82.5906 112.017 82.3324L110.827 83.9396C111.343 84.3214 111.924 84.6282 112.562 84.8654L113.258 82.9906ZM112.032 82.3434C111.667 82.0625 111.41 81.8049 111.238 81.576L109.638 82.776C109.947 83.1871 110.346 83.5695 110.813 83.9286L112.032 82.3434ZM111.27 81.6213C111.185 81.4928 111.138 81.4009 111.115 81.3426C111.091 81.2823 111.102 81.285 111.102 81.336H109.102C109.102 81.8606 109.349 82.3449 109.606 82.7307L111.27 81.6213ZM110.489 82.2582L111.233 81.9462L110.46 80.1018L109.716 80.4138L110.489 82.2582ZM109.846 81.024V87.336H111.846V81.024H109.846ZM109.846 87.336C109.846 87.5106 109.799 87.5926 109.731 87.6609L111.145 89.0751C111.621 88.5994 111.846 87.9934 111.846 87.336H109.846ZM109.711 87.6814C109.639 87.7584 109.563 87.8 109.406 87.8V89.8C110.082 89.8 110.694 89.5536 111.165 89.0546L109.711 87.6814ZM109.406 87.8C109.232 87.8 109.15 87.7531 109.081 87.6849L107.667 89.0991C108.143 89.5749 108.749 89.8 109.406 89.8V87.8ZM109.081 87.6849C109.021 87.6242 108.966 87.5384 108.966 87.336H106.966C106.966 87.9976 107.184 88.6158 107.667 89.0991L109.081 87.6849ZM108.966 87.336V72.624H106.966V87.336H108.966ZM108.966 72.624C108.966 72.4494 109.013 72.3674 109.081 72.2991L107.667 70.8849C107.191 71.3606 106.966 71.9666 106.966 72.624H108.966ZM109.101 72.2786C109.174 72.2016 109.25 72.16 109.406 72.16V70.16C108.731 70.16 108.119 70.4064 107.647 70.9054L109.101 72.2786ZM109.406 72.16C109.563 72.16 109.639 72.2016 109.711 72.2786L111.165 70.9054C110.694 70.4064 110.082 70.16 109.406 70.16V72.16ZM109.731 72.2991C109.799 72.3674 109.846 72.4494 109.846 72.624H111.846C111.846 71.9666 111.621 71.3606 111.145 70.8849L109.731 72.2991ZM109.846 72.624V73.8H111.846V72.624H109.846ZM111.314 72.9162L110.906 72.7002L109.97 74.4678L110.378 74.6838L111.314 72.9162ZM111.438 73.584C111.438 73.6585 111.419 73.6864 111.434 73.6536C111.448 73.6213 111.485 73.5552 111.564 73.4539L109.985 72.2261C109.716 72.5713 109.438 73.0398 109.438 73.584H111.438ZM111.579 73.4332C111.732 73.2257 111.96 72.9965 112.286 72.752L111.086 71.152C110.644 71.4835 110.264 71.8463 109.969 72.2468L111.579 73.4332ZM112.307 72.736C112.606 72.4994 112.957 72.2995 113.367 72.1406L112.645 70.2754C112.064 70.5005 111.535 70.7966 111.066 71.168L112.307 72.736ZM113.357 72.1443C113.754 71.9955 114.171 71.92 114.614 71.92V69.92C113.937 69.92 113.282 70.0365 112.655 70.2717L113.357 72.1443ZM114.254 72.56C113.375 72.56 112.562 72.7826 111.852 73.2559L112.961 74.92C113.307 74.6894 113.725 74.56 114.254 74.56V72.56ZM111.852 73.2559C111.168 73.7113 110.64 74.3286 110.264 75.0808L112.053 75.9752C112.285 75.5114 112.588 75.1687 112.961 74.92L111.852 73.2559ZM110.259 75.0905C109.895 75.8398 109.726 76.6736 109.726 77.568H111.726C111.726 76.9264 111.846 76.4002 112.057 75.9655L110.259 75.0905ZM109.726 77.568C109.726 78.4509 109.896 79.2837 110.25 80.0511L112.066 79.2129C111.844 78.7323 111.726 78.1891 111.726 77.568H109.726ZM110.264 80.0792C110.64 80.8314 111.168 81.4487 111.852 81.9041L112.961 80.24C112.588 79.9913 112.285 79.6486 112.053 79.1848L110.264 80.0792ZM111.852 81.9041C112.562 82.3774 113.375 82.6 114.254 82.6V80.6C113.725 80.6 113.307 80.4706 112.961 80.24L111.852 81.9041ZM114.254 82.6C115.133 82.6 115.944 82.3775 116.645 81.896L115.512 80.248C115.188 80.4705 114.784 80.6 114.254 80.6V82.6ZM116.633 81.9041C117.321 81.4454 117.845 80.8216 118.206 80.0601L116.399 79.2039C116.183 79.6584 115.892 79.9946 115.524 80.24L116.633 81.9041ZM118.201 80.07C118.577 79.2984 118.758 78.4589 118.758 77.568H116.758C116.758 78.1811 116.635 78.7176 116.403 79.194L118.201 80.07ZM118.758 77.568C118.758 76.6657 118.579 75.8249 118.192 75.0712L116.413 75.9848C116.634 76.4151 116.758 76.9343 116.758 77.568H118.758ZM118.206 75.0999C117.845 74.3384 117.321 73.7146 116.633 73.2559L115.524 74.92C115.892 75.1654 116.183 75.5016 116.399 75.9561L118.206 75.0999ZM116.645 73.264C115.944 72.7825 115.133 72.56 114.254 72.56V74.56C114.784 74.56 115.188 74.6895 115.512 74.912L116.645 73.264Z" fill="black" fill-opacity="0.1"/>
<path d="M61 66C79.2254 66 94 51.2254 94 33C94 14.7746 79.2254 0 61 0C42.7746 0 28 14.7746 28 33C28 51.2254 42.7746 66 61 66Z" fill="url(#paint1_linear_149_3828)"/>
<path d="M93.5 33C93.5 50.9492 78.9492 65.5 61 65.5C43.0507 65.5 28.5 50.9492 28.5 33C28.5 15.0507 43.0507 0.5 61 0.5C78.9492 0.5 93.5 15.0507 93.5 33Z" stroke="black" stroke-opacity="0.1"/>
<path d="M59.2504 11.1782C59.9794 10.7407 60.8543 10.7407 61.5833 11.1782L64.2077 12.782C64.4507 12.9278 64.5965 13.1708 64.5965 13.4624C64.5965 13.754 64.4507 13.997 64.2077 14.1428L47.003 24.0088C46.3226 24.3976 45.9338 25.1266 45.9338 25.8556V39.9985C45.9338 40.7761 46.3712 41.5051 47.0516 41.8939L54.2931 45.6848C54.6333 45.8792 55.0707 45.8792 55.4109 45.6362C55.7512 45.4418 55.9942 45.053 55.9942 44.6642V31.5419C55.9942 30.7643 56.383 30.0839 57.0634 29.6951L73.6363 19.9263C74.5597 19.3917 75.6775 19.3917 76.6009 19.9263L78.545 21.0927C78.8366 21.2871 78.9824 21.5787 78.9824 21.9189C78.9824 22.2591 78.788 22.5508 78.545 22.6966L60.7084 33.0971V51.7599C60.7084 52.5375 60.3196 53.2179 59.6392 53.6067C58.9588 53.9955 58.1812 53.9955 57.5008 53.6067L42.2401 44.8586C41.5597 44.4697 41.1709 43.7893 41.1709 43.0117V23.2312C41.1709 22.5022 41.5597 21.8703 42.1429 21.4815L59.2504 11.1782Z" fill="white"/>
<path d="M63.947 13.2086L63.947 13.2086L61.326 11.6069C61.3255 11.6066 61.3249 11.6062 61.3244 11.6059C60.7541 11.2645 60.078 11.2648 59.5079 11.6067C59.5078 11.6068 59.5077 11.6068 59.5077 11.6069L42.4113 21.9036C41.9545 22.2119 41.6709 22.6933 41.6709 23.2312V43.0117C41.6709 43.6119 41.9653 44.1256 42.4882 44.4244L42.4888 44.4248L57.7488 53.1726L63.947 13.2086ZM63.947 13.2086L63.9505 13.2107M63.947 13.2086L63.9505 13.2107M63.9505 13.2107C64.0492 13.27 64.0965 13.3537 64.0965 13.4624C64.0965 13.5698 64.0503 13.6529 63.9539 13.712L46.7549 23.5747C46.7547 23.5748 46.7545 23.5749 46.7543 23.575C45.9114 24.057 45.4338 24.9558 45.4338 25.8556V39.9985C45.4338 40.9625 45.9735 41.8537 46.8035 42.328L46.8115 42.3326M63.9505 13.2107L46.8115 42.3326M46.8115 42.3326L46.8197 42.3369M46.8115 42.3326L46.8197 42.3369M46.8197 42.3369L54.0539 46.1239C54.5423 46.3987 55.1759 46.4059 55.6809 46.0576C56.1521 45.778 56.4942 45.2386 56.4942 44.6642V31.5419C56.4942 30.9418 56.7885 30.428 57.3114 30.1292L57.3115 30.1292M46.8197 42.3369L57.3115 30.1292M57.3115 30.1292L57.3173 30.1258M57.3115 30.1292L57.3173 30.1258M57.3173 30.1258L73.8868 20.359C73.8873 20.3587 73.8878 20.3585 73.8882 20.3582C74.6553 19.9148 75.5798 19.9144 76.3472 20.3572L78.2761 21.5145C78.4162 21.6112 78.4824 21.7414 78.4824 21.9189C78.4824 22.0686 78.3937 22.2032 78.2898 22.2666C78.2891 22.267 78.2884 22.2674 78.2877 22.2678L60.4566 32.6652L60.2084 32.8099M57.3173 30.1258L60.2084 32.8099M60.2084 32.8099V33.0971M60.2084 32.8099V33.0971M60.2084 33.0971V51.7599M60.2084 33.0971V51.7599M60.2084 51.7599C60.2084 52.36 59.9141 52.8738 59.3912 53.1726M60.2084 51.7599L59.3912 53.1726M59.3912 53.1726C58.8647 53.4734 58.276 53.4736 57.7494 53.1729L59.3912 53.1726Z" stroke="black" stroke-opacity="0.1"/>
<path d="M62.5068 51.9544C62.5068 52.6834 62.8956 53.4124 63.5275 53.8012C64.1593 54.19 64.9855 54.19 65.6173 53.8498L66.4435 53.4124C67.0267 53.0722 67.4155 52.4404 67.4155 51.76V36.7909L69.5054 35.2357V45.0045C69.5054 45.6849 69.8942 46.3167 70.4774 46.6569L70.8176 46.8513C71.498 47.1915 72.2756 47.1915 72.9074 46.8027C73.5392 46.4139 73.9766 45.7335 73.9766 44.9559V32.3197L76.1637 31.2504V43.5951C76.1637 44.3727 76.6011 45.1017 77.2815 45.4905C77.9619 45.8793 78.7881 45.8307 79.4685 45.3933L80.0518 45.0045C80.5864 44.6643 80.9266 44.0811 80.9266 43.4493V27.2166C80.9266 26.439 80.5378 25.7585 79.8573 25.3697C79.1769 24.9809 78.3993 24.9809 77.7189 25.3697L63.576 33.5347C62.8956 33.9235 62.5068 34.6039 62.5068 35.3815V51.9544Z" fill="white"/>
<path d="M65.3833 53.4079L65.3802 53.4096C64.8971 53.6697 64.2615 53.6659 63.7895 53.3754C63.3113 53.0811 63.0068 52.5166 63.0068 51.9544V35.3815C63.0068 34.7814 63.3012 34.2676 63.8241 33.9688L63.826 33.9677L77.967 25.8039C77.9673 25.8037 77.9676 25.8035 77.9678 25.8034C78.4943 25.5029 79.0829 25.503 79.6093 25.8039C80.1322 26.1027 80.4266 26.6164 80.4266 27.2166V43.4493C80.4266 43.8991 80.1832 44.3282 79.7833 44.5826L79.7833 44.5826L79.7744 44.5885L79.1949 44.9748C78.6571 45.319 78.0323 45.3437 77.5296 45.0564C76.9988 44.7531 76.6637 44.1863 76.6637 43.5951V31.2504V30.4494L75.9441 30.8012L73.757 31.8705L73.4766 32.0075V32.3197V44.9559C73.4766 45.539 73.148 46.0676 72.6454 46.3769C72.1814 46.6624 71.5943 46.6762 71.0529 46.4099L70.7293 46.225C70.7287 46.2247 70.728 46.2243 70.7274 46.2239C70.2882 45.9668 70.0054 45.4943 70.0054 45.0045V35.2357V34.2404L69.2069 34.8346L67.117 36.3898L66.9155 36.5398V36.7909V51.76C66.9155 52.2474 66.6354 52.7178 66.1998 52.9757L65.3833 53.4079Z" stroke="black" stroke-opacity="0.1"/>
<defs>
<linearGradient id="paint0_linear_149_3828" x1="61" y1="86.6051" x2="61" y2="61.5786" gradientUnits="userSpaceOnUse">
<stop stop-color="#FF8A00"/>
<stop offset="1" stop-color="#FFBC00"/>
</linearGradient>
<linearGradient id="paint1_linear_149_3828" x1="61" y1="58.5311" x2="61" y2="3.47303" gradientUnits="userSpaceOnUse">
<stop stop-color="#FF8A00"/>
<stop offset="1" stop-color="#FFBC00"/>
</linearGradient>
</defs>
</svg>
