<svg width="645" height="552" viewBox="0 0 645 552" fill="none" xmlns="http://www.w3.org/2000/svg">
<g opacity="0.5">
<path d="M541.569 314.948C566.93 301.269 579.409 280.074 567.131 258.885C556.547 240.617 539.606 230.168 551.515 201.709C596.911 92.9531 499.722 97.7598 433.172 122.291C337.631 157.5 316.169 143.324 262.736 140.767C225.398 138.989 193.887 140.165 154.243 160.029C94.8637 189.789 79.7552 235.627 100.029 266.837C109.997 282.147 124.73 297.108 132.613 306.822C153.734 332.914 154.436 345.733 163.973 386.327C184.539 464.759 281.089 464.096 343.055 400.629C396.123 346.277 399.089 342.316 461.759 334.191C488.064 330.767 512.556 330.608 541.569 314.948Z" fill="url(#paint0_linear_70_2284)"/>
<g style="mix-blend-mode:overlay">
<path d="M206.382 429.989C210.452 414.297 233.457 403.497 243.285 399.534C247.361 397.877 251.671 396.299 255.709 394.811C267.709 390.399 280.11 385.828 290.17 378.386C309.238 364.283 314.082 343.98 315.29 333.138C315.994 326.634 316.01 320.138 316.016 313.854C315.997 305.114 316.055 296.05 317.969 286.849C320.863 273.716 327.492 260.421 337.357 247.965C347.222 235.51 360.065 224.22 374.917 214.947C380.246 211.661 385.962 208.572 391.468 205.527C404.157 198.696 417.256 191.572 426.376 181.81C443.21 163.876 442.058 143.158 439.522 123.448C438.154 113.203 436.751 102.617 431.354 93.8174C425.396 84.0706 414.957 78.2006 402.753 77.832L403.03 77.1662C415.472 77.5467 426.101 83.4578 432.153 93.3948C437.639 102.269 438.999 112.908 440.384 123.239C443.016 143.061 444.165 163.936 427.096 182.131C417.788 192.033 404.602 199.173 391.838 206.081C386.319 209.066 380.621 212.149 375.323 215.412C360.578 224.611 347.826 235.814 338.029 248.174C328.232 260.535 321.646 273.731 318.767 286.766C316.843 295.918 316.831 304.941 316.83 313.674C316.81 319.976 316.813 326.479 316.078 333.006C313.994 351.947 304.947 368.201 290.604 378.815C280.405 386.368 267.902 390.974 255.817 395.414C251.728 396.919 247.503 398.469 243.427 400.125C233.851 403.991 211.143 414.653 207.168 429.936L206.382 429.989Z" fill="white"/>
</g>
</g>
<defs>
<linearGradient id="paint0_linear_70_2284" x1="129.579" y1="270.688" x2="485.112" y2="422.736" gradientUnits="userSpaceOnUse">
<stop stop-color="#FF8A00"/>
<stop offset="1" stop-color="#FFBC00"/>
</linearGradient>
</defs>
</svg>
